<?xml version="1.0" encoding="UTF-8" standalone="no"?>
<!DOCTYPE svg PUBLIC "-//W3C//DTD SVG 1.1//EN" "http://www.w3.org/Graphics/SVG/1.1/DTD/svg11.dtd">
<!-- Created with Vectornator (http://vectornator.io/) -->
<svg height="100%" stroke-miterlimit="10" style="fill-rule:nonzero;clip-rule:evenodd;stroke-linecap:round;stroke-linejoin:round;" version="1.1" viewBox="0 0 652.361 644.449" width="100%" xml:space="preserve" xmlns="http://www.w3.org/2000/svg" xmlns:vectornator="http://vectornator.io" xmlns:xlink="http://www.w3.org/1999/xlink">
<defs/>
<g id="Icon" vectornator:layerName="Icon">
<path d="M436.118 247.377L220.371 558.049L641.371 553.45L436.118 247.377Z" fill="none" opacity="1" stroke="#000000" stroke-linecap="butt" stroke-linejoin="round" stroke-width="10"/>
<path d="M333.282 394.141L363.448 372.514L389.527 371.144L416.793 393.426L440.315 402.922L484.882 406.146L521.325 379.925L517.968 380.343" fill="none" opacity="1" stroke="#000000" stroke-linecap="butt" stroke-linejoin="round" stroke-width="10"/>
<path d="M229.995 552.61L339.226 392.202L366.947 378.218L396.323 376.162L416.183 394.259L435.629 405.775L486.935 410.3L524.586 385.622L633.816 550.142L229.995 552.61Z" fill="#000000" fill-rule="nonzero" opacity="1" stroke="#000000" stroke-linecap="butt" stroke-linejoin="round" stroke-width="10"/>
<path d="M350.911 378.67L435.698 258.666L518.807 378.67L485.647 403.758L431.501 401.25L386.169 379.507L350.911 378.67Z" fill="#ffffff" fill-rule="nonzero" opacity="1" stroke="#000000" stroke-linecap="butt" stroke-linejoin="round" stroke-width="10"/>
<path d="M523.844 396.65L623.742 544.669L237.161 548.85L353.849 387.869L378.614 385.779L409.674 396.232L427.723 412.121L452.908 410.448L478.512 410.448L499.919 404.595L523.844 396.65Z" fill="#3c7701" fill-rule="nonzero" opacity="1" stroke="#000000" stroke-linecap="butt" stroke-linejoin="round" stroke-width="10"/>
<path d="M154.802 342.377L8.3713 568.839L294.111 565.487L154.802 342.377Z" fill="none" opacity="1" stroke="#000000" stroke-linecap="butt" stroke-linejoin="round" stroke-width="10"/>
<path d="M85.0054 449.36L105.48 433.595L123.18 432.596L141.686 448.838L157.651 455.76L187.899 458.11L212.634 438.997L210.355 439.302" fill="none" opacity="1" stroke="#000000" stroke-linecap="butt" stroke-linejoin="round" stroke-width="10"/>
<path d="M14.9033 564.874L89.0397 447.946L107.855 437.753L127.793 436.254L141.272 449.445L154.471 457.84L189.292 461.138L214.847 443.149L288.983 563.075L14.9033 564.874Z" fill="#000000" fill-rule="nonzero" opacity="1" stroke="#000000" stroke-linecap="butt" stroke-linejoin="round" stroke-width="10"/>
<path d="M96.9706 438.082L154.517 350.606L210.925 438.082L188.419 456.37L151.669 454.541L120.901 438.692L96.9706 438.082Z" fill="#ffffff" fill-rule="nonzero" opacity="1" stroke="#000000" stroke-linecap="butt" stroke-linejoin="round" stroke-width="10"/>
<path d="M214.343 451.189L282.146 559.086L19.7667 562.134L98.9648 444.788L115.773 443.264L136.855 450.884L149.105 462.466L166.198 461.247L183.576 461.247L198.105 456.98L214.343 451.189Z" fill="#3c7701" fill-rule="nonzero" opacity="1" stroke="#000000" stroke-linecap="butt" stroke-linejoin="round" stroke-width="10"/>
<path d="M300.371 265.877L43.3713 637.377L544.871 631.877L300.371 265.877Z" fill="none" opacity="1" stroke="#000000" stroke-linecap="butt" stroke-linejoin="round" stroke-width="10"/>
<path d="M177.871 441.377L213.806 415.515L244.871 413.877L277.351 440.521L305.371 451.877L358.459 455.731L401.871 424.377L397.871 424.877" fill="none" opacity="1" stroke="#000000" stroke-linecap="butt" stroke-linejoin="round" stroke-width="10"/>
<path d="M54.8356 630.872L184.952 439.058L217.974 422.336L252.967 419.877L276.625 441.517L299.789 455.289L360.904 460.699L405.755 431.189L535.871 627.921L54.8356 630.872Z" fill="#000000" fill-rule="nonzero" opacity="1" stroke="#000000" stroke-linecap="butt" stroke-linejoin="round" stroke-width="10"/>
<path d="M198.871 422.877L299.871 279.377L398.871 422.877L359.371 452.877L294.871 449.877L240.871 423.877L198.871 422.877Z" fill="#ffffff" fill-rule="nonzero" opacity="1" stroke="#000000" stroke-linecap="butt" stroke-linejoin="round" stroke-width="10"/>
<path d="M404.871 444.377L523.871 621.377L63.3713 626.377L202.371 433.877L231.871 431.377L268.871 443.877L290.371 462.877L320.371 460.877L350.871 460.877L376.371 453.877L404.871 444.377Z" fill="#3c7701" fill-rule="nonzero" opacity="1" stroke="#000000" stroke-linecap="butt" stroke-linejoin="round" stroke-width="10"/>
<path d="M396.371 63.8768L364.371 116.377L410.871 152.377L448.371 99.8768L396.371 63.8768Z" fill="#000000" fill-rule="nonzero" opacity="1" stroke="#000000" stroke-linecap="butt" stroke-linejoin="round" stroke-width="10"/>
<path d="M265.371 40.8768L341.371 108.377L370.871 63.8768L296.371 8.37675L265.371 40.8768Z" fill="#000000" fill-rule="nonzero" opacity="1" stroke="#000000" stroke-linecap="butt" stroke-linejoin="round" stroke-width="10"/>
<path d="M442.371 159.877L524.871 217.877L552.871 182.377L479.371 122.377L442.371 159.877Z" fill="#000000" fill-rule="nonzero" opacity="1" stroke="#000000" stroke-linecap="butt" stroke-linejoin="round" stroke-width="10"/>
<path d="M354.871 80.3768L382.371 101.377" fill="#000000" fill-rule="nonzero" opacity="1" stroke="#000000" stroke-linecap="butt" stroke-linejoin="round" stroke-width="10"/>
<path d="M423.871 118.877L461.871 148.877" fill="#000000" fill-rule="nonzero" opacity="1" stroke="#000000" stroke-linecap="butt" stroke-linejoin="round" stroke-width="10"/>
<path d="M385.371 131.377L373.871 148.377" fill="#000000" fill-rule="nonzero" opacity="1" stroke="#000000" stroke-linecap="butt" stroke-linejoin="round" stroke-width="10"/>
<path d="M371.371 146.268L378.238 150.97L375.615 158.577L367.127 158.577L364.505 150.97L371.371 146.268Z" fill="#000000" fill-rule="nonzero" opacity="1" stroke="#000000" stroke-linecap="butt" stroke-linejoin="round" stroke-width="10"/>
<path d="M346.371 159.377L351.871 173.877L365.371 180.377" fill="#000000" fill-rule="nonzero" opacity="1" stroke="#000000" stroke-linecap="butt" stroke-linejoin="round" stroke-width="10"/>
<path d="M325.371 160.377L334.871 177.377L343.871 188.877L356.871 195.377L372.371 196.877" fill="none" opacity="1" stroke="#000000" stroke-linecap="butt" stroke-linejoin="round" stroke-width="10"/>
<path d="M310.687 148.443L313.012 169.32L321.014 187.409L332.418 204.532L346.374 210.714L364.723 215.795L383.551 213.243" fill="none" opacity="1" stroke="#000000" stroke-linecap="butt" stroke-linejoin="round" stroke-width="10"/>
</g>
</svg>
