<svg xmlns="http://www.w3.org/2000/svg" width="1331" height="1332" viewBox="0 0 1331 1332">
<defs><clipPath id="rounded-corners"><rect width="1331" height="1332" rx="216" ry="216"/></clipPath></defs>
<g clip-path="url(#rounded-corners)">
<rect width="1331" height="1332" fill="#1c5191" rx="216" ry="216"/>
<path fill="#1e5e36" d="M403 715q0 1 0 2 2 0 3 0 0 1 0 2 2 0 4 1 0 1 0 2 1 0 2 0 4 2 5 5 4 5 7 8 4 2 5 6 3 4 8 7 3 3 4 7 2 1 4 2c5 5 5 5 5 8q1 0 2 0 3 3 5 5 2 4 6 7 0 1 0 2 2 1 3 1 2 2 4 4 0 1 0 2 1 0 2 0 2 2 4 4 1 0 1 2 2 2 3 4t4 3q1 2 1 4 2 1 3 1 0 1 0 2 1 0 2 1 3 1 4 5 1 0 2 0c5 5 5 5 5 8q1 0 2 0 0 1 0 2 2 1 3 1 2 2 3 4 1 1 2 2 1 3 3 6 1 0 2 0 2 2 3 4 1 0 2 2a910 910 0 0 1 12 12q4 5 7 10 2 2 5 3 2 2 4 4 0 1 2 3 1 2 1 4 1 0 2 0 3 1 5 5 0 1 0 2 1 0 2 0 0 1 0 2 2 1 3 1 2 2 4 4 1 3 4 5a292 292 0 0 1 5 6q2 2 3 5 1 0 2 0 2 2 4 4 0 2 0 3 2 1 4 2 0 1 0 2 1 0 2 0 2 2 3 4 4 3 7 7 2 2 2 5 2 1 2 1 1 1 3 1 1 2 1 3 1 1 2 2 8 4 10 13 1 0 2 0 0 1 0 2a4601 4601 0 0 1 8 6q0 1 0 2 1 0 2 0 1 1 1 2 3 6 8 8 1 1 2 2 0 1 0 2 1 0 2 0 0 2 0 3 1 0 2 0 0 1 0 2 1 0 2 0 0 1 0 2 1 2 3 3 1 1 2 1 0 1 0 2 1 0 2 1 3 1 5 4 0 1 0 2 1 0 2 0 2 3 4 6 1 1 2 2t2 2 0 2q1 0 2 0 0 1 0 2 2 0 3 0 0 1 0 2 3 0 6-1 1-1 1-2 2-5 6-7 1-1 2-3a2296 2296 0 0 1 12-11q1 0 2 0 1-1 1-2 1-2 4-3 1-1 1-2 2-4 6-7a4714 4714 0 0 0 9-9q1-1 4-4 0 0 2-2 1-1 2-2 0 0 2-1 1-2 2-4 1 0 2 0 1-1 1-3 1 0 2 0 1-2 2-4 1 0 2 0 0-1 0-2 1-4 6-6 2-1 3-3 2-2 5-3 0-1 0-2 2-2 4-3 0-2 2-2 2-2 4-4 2-1 3-4 1 0 2 0 0-1 0-2 2-4 5-6 2-1 4-3 3-5 8-8 4-4 8-8 2-2 4-3t3-3q2-5 7-8 2-2 3-4 1 0 2 0 0-1 0-2c5-5 5-5 8-5q1-1 1-3 1 0 2 0 1-1 1-2 1-2 4-3 1-2 2-4t4-5q1-1 1-2 1-1 2-2 1 0 2 0 0-1 0-2 3-2 5-4 1-2 4-4 3-4 7-7 3-2 5-5 3-4 7-7 1 0 2 0a21745 21745 0 0 0 5-7q1 0 2 0 0-1 1-2 2-4 6-7 1-1 2-3 1 0 2 0 0-1 1-2 3-6 9-8 1-1 1-2 1-3 5-4 1-2 2-4 2-2 4-4 1 0 2 0 0-1 1-2 2-3 5-5 2 0 3 0 0-1 0-2 4-2 8-4 1 0 2-1 7-3 15-4 2 0 2 0 16-2 30 5a2433 2433 0 0 0 10 5q1 1 2 1 0 1 0 2 1 0 2 0 0 1 0 2 1 0 2 0 0 1 0 2 1 0 2 1 4 1 7 6 0 1 0 2 1 0 2 0 4 1 4 5 1 1 2 1 3 2 6 5 0 1 2 2 1 2 1 4 2 1 3 1 0 1 0 2 1 0 2 0 1 1 3 3 5 5 9 9 3 3 6 6 0 1 0 2 2 1 3 1 1 2 4 4 1 2 4 4 1 1 2 2 0 1 0 2a1872 1872 0 0 0 7 6q2 2 5 4 0 1 0 2 1 0 2 0c5 4 5 4 6 8q1 0 2 0 1 1 3 3a108 108 0 0 0 11 12q0 0 2 2 4 4 6 6t3 3q3 2 2 4 1 0 2 1 2 1 3 4 1 0 2 0 2 3 4 5 1 1 2 1 0 1 0 2 1 0 2 0 1 1 2 2 3 4 7 8 4 3 7 6 0 1 0 2 1 0 2 0 1 1 3 3 2 4 6 6 0 1 0 2 2 1 3 1 1 2 2 4 4 4 7 7 4 4 8 7 1 2 4 5 2 2 3 4 2 3 5 4 1 2 1 3 1 1 2 1 1 1 2 1 1 2 1 3 2 1 4 2 0 1 0 2 1 0 2 0 3 1 4 4 5 6 10 11 3 2 2 4 1 0 2 0 0 1 0 2 2 0 2 1 4 1 4 3 0 1 0 2 1 0 2 0 1 1 3 3 2 3 5 5 0 1 0 2 1 0 2 0 0 1 0 2 2 0 3 0c4 5 4 5 4 8q1 0 2 0 4 2 6 5a3593 3593 0 0 1 4 6q2 1 3 1 2 3 3 5 2 1 3 2 2 2 4 3 1 2 2 2 3 3 5 6 0 1 0 2 1 0 2 0 0 1 0 2 1 0 2 1 3 2 6 5a3981 3981 0 0 0 12 12q0 1 0 2 1 0 2 0 0 1 0 2 1 0 2 1 3 2 6 5a2833 2833 0 0 1 3 6q1 0 2 1 5 2 7 6 3 4 7 6 3 3 5 5 0 5-1 9 0 4-1 7 0 2 0 3-1 4-1 8 0 1 0 4 0 1-1 3 0 5-2 9 0 3-1 5-2 9-5 18 0 2-1 3-3 8-6 17-1 0-2 0 0 1-1 2-2 7-5 13-3 5-4 9-1 0-2 0 0 2-1 3-1 6-6 11-3 3-4 6-3 4-7 8-2 3-5 7-3 7-11 13a11969 11969 0 0 0-10 10q-3 2-8 3 0 1 0 2-2 1-4 3-3 2-6 6-4 3-9 6-3 1-6 4t-8 3q0 1 0 2-4 1-8 2 0 1 0 2-4 1-8 2 0 1 0 2-4 1-8 2 0 1 0 2a160 160 0 0 1-25 9q0 0-2 0-2 1-5 2-6 2-12 2-3 1-6 2-5 2-10 2c-5 1-5 1-10 2q-21 1-44 1-5 0-10 0a23801 23801 0 0 1-142 0q-2 0-3 0-6 0-12 0a531028 531028 0 0 1-324 0q-6 0-12 0-2 0-3 0a140405 140405 0 0 0-161 0q-7 0-13 0-1 0-3 0a19063 19063 0 0 0-120 0c-71 0-71 0-99-8a13390 13390 0 0 0-24-7q-19-7-36-19-4-2-9-5-2-1-4-3 0-1-4-2-1-1-3-3-3-3-7-5-6-5-11-11-1-1-3-3-5-4-9-9-1-1-3-3-11-8-17-20 0-1 0-2-1 0-3-1-1-2-3-4-3-6-6-10c-14-22-24-52-29-77q0-3-1-6-2-10-1-19 0-1 0-2a1683 1683 0 0 1-1-35c0-11 0-11 3-14q2-3 5-4 1-1 1-2 1 0 2 0 0-1 0-2 2-3 5-5 1 0 2 0 0-1 1-2 1-3 5-4 1-1 1-2 2-4 6-7 0-1 2-3t4-2q0-1 0-2 2-4 6-6 3-3 5-6 1 0 1-1 1 0 2 0a2013 2013 0 0 0 6-8q0-1 1-2 2-2 4-2 0-1 1-2 2-3 5-6 4-4 7-8 1-1 2-2 1 0 2 0 0-1 0-2 1-3 4-5 1 0 2 0 1-1 1-3 1 0 2 0 1-1 1-2 1-2 3-5 1 0 2 0 1-1 1-2 1-2 4-3 1-2 2-4 3-3 5-6 1 0 2 0 0-1 0-2 1 0 2 0 0-1 0-2 1-3 5-5 9-9 17-18 2-2 4-4t3-5q3-1 5-2 0-1 0-2 1 0 2 0 1-2 2-5 1 0 2 0 0-1 0-2a382 382 0 0 1 7-7q1 0 2 0 1-2 2-4 1 0 2 0a21745 21745 0 0 0 5-7q1 0 2 0 1-2 2-4 1 0 2 0 0-1 0-2 1 0 2 0 0-1 1-2 1-4 5-5 1-2 2-4 2-2 4-4 1 0 2 0 1-1 1-2 1-2 3-5 1 0 2 0 0-1 0-3 1-1 3-3 6-5 11-11 3-3 5-5 1-1 2-3 2-2 4-2 0-1 0-2 1 0 2 0 0-1 0-2 1 0 2 0a2155 2155 0 0 1 6-9q3-3 5-6 2 0 3 0 0-1 1-2 2-3 5-7 1 0 2 0 0-1 1-2 2-3 5-6 6-5 11-12 1 0 2 0 0-1 0-2 1-1 1-2 1 0 2-1 3-1 4-4 4-5 9-9 1 0 2 0 1-1 1-2 1-3 4-6 1 0 2 0 0-1 1-2 2-5 6-7c4-3 4-3 6-8q4-5 7-4 0-1 0-2 1 0 2 0 0-1 0-2 1 0 2 0 1-1 1-3 3-2 5-5 1-1 2-2c22-24 53-25 81-10"/>
<path fill="#437f48" d="M388 738q9 7 16 16 4 4 7 7t5 6a390 390 0 0 0 32 34q1 1 1 2 5 4 9 9 3 3 6 7 2 2 3 3t2 2q5 5 5 5a7539 7539 0 0 0 87 96c7 7 7 7 10 11q1 1 2 1 2 3 3 6-5-1-11-4-1-1-3-1-1-1-3-2t-4-2a3534 3534 0 0 1-18-9q-2-1-4-2a3951 3951 0 0 0-59-30q-5-3-11-5-2-1-4-3-1 0-3-1 0 2 1 2 3 12 5 22a681 681 0 0 0 18 70q0 1 0 3 1 0 1 2t-1 5q-1-1-3-3-2-1-3-3 0 0-1-2a27655 27655 0 0 0-4-3q-1-1-4-3 0-1 0-2-1 0-2-1-2-1-5-4-1 0-2-1 0-2-1-2-1-1-2-2a2235 2235 0 0 1-14-14q-1-1-2-2-5-6-11-10-8-8-14-14-3-2-4-5-1 0-3-2t-4-3q0-1 0-2-1 0-2-1-4-3-8-7-1-1-2-2-10 3-16 11c-9 12-6 29-6 43q0 8 0 15a2339 2339 0 0 0 1 64 10882 10882 0 0 0 0 125q0 11 0 22 0 17 0 32 0 3 0 4 1 24 1 48 0 5 0 10 0 3 0 6 0 2 0 3 0 9 0 18 0 6 0 11a2054 2054 0 0 0 0 15q0 4-1 4-3 0-6 0-1 0-4 0-2 0-4 0a6775 6775 0 0 0-20 0q0 0-2 0a13033 13033 0 0 1-90 1 251 251 0 0 1-93-15q-19-7-36-19-4-2-9-5-2-1-4-3 0-1-4-2-1-1-3-3-3-3-7-5-6-5-11-11-1-1-4-3-4-4-8-9-1-1-3-3-11-8-17-20 0-1 0-2-1 0-3-1-1-2-3-4-3-6-6-10c-14-22-24-52-29-77q0-3-1-7a69 69 0 0 1-2-19q-1-6 3-10 3-3 6-6 1-1 1-2 1 0 2 0a1626 1626 0 0 0 6-8q4-3 7-8 2-1 3-3 1 0 2 0a848 848 0 0 0 6-9q1-1 2-2 2-2 4-2 0-1 1-2 2-3 5-6 5-4 8-9 1-1 2-2 1 0 2 0 0-1 0-2 1 0 2 0 0-1 1-2 2-3 5-7 1 0 2 0 0-1 1-2 2-3 6-7 3-3 5-6 1 0 2 0 0-1 0-2 1 0 2 0 0-1 1-2 2-3 6-7 7-7 14-15 1-2 2-2 0-1 2-3 1-1 3-1 0-1 0-2 2-2 4-4 1 0 2 0a56879 56879 0 0 0 5-8q2-1 3-2t2-2a348 348 0 0 0 20-22q6-6 11-12 5-5 9-9 3-3 5-6 5-5 8-8 5-4 8-9 6-6 12-12 2-2 3-4 1 0 2 0 0-1 1-2 2-4 7-8 6-6 11-12 4-4 8-8 3-3 5-6 5-4 9-9 5-4 8-9 5-5 10-10 6-6 11-12 5-5 9-9 5-5 9-10 5-4 9-9 2-2 3-4 1 0 2 0 0-1 1-2 2-3 5-6 1-2 2-2 2-1 3-3a2036 2036 0 0 0 6-6q2-2 3-4 1 0 2 0 0-1 1-2 2-4 6-7 2-1 3-3 2-2 4-2 0-1 0-2 2-1 5-3 0-1 2-2 19-8 36 3"/>
<path fill="#437f48" d="M977 785q8 5 15 13 1 1 2 1 4 5 3 6 1 0 2 0 0 1 0 2 1 0 2 0 1 1 3 3 8 9 16 17a3561 3561 0 0 1 44 44q2 1 2 2 5 5 4 6 2 1 4 2 0 1 0 2 1 0 2 0 0 1 0 2 1 0 2 0 1 1 3 3 6 8 14 15 2 2 4 4a6246 6246 0 0 0 22 22q1 0 2 2 2 1 2 2 3 2 2 4 2 1 4 2 0 1 0 2 1 0 2 0 0 1 0 2 1 0 2 0 0 1 0 2 1 0 2 0 1 1 3 3a228 228 0 0 0 24 25q3 3 5 6 7 7 14 13-1 1-2 1-2-1-4-2-1 0-3-1-1-1-3-1a2977 2977 0 0 0-67-32q-6-3-12-5a412 412 0 0 1-37-18 122748 122748 0 0 0 24 93q1 0 1 2c1 6 1 6 0 9q0 0-1-1-4-5-10-9-6-6-13-13-5-6-11-10-4-4-7-7t-6-5a149 149 0 0 1-15-14q-4-4-8-8-2-1-2-2a1027 1027 0 0 1-17-13q0 1-1 2-1 4-6 7a296 296 0 0 0-16 19q-7 10-6 22a1153 1153 0 0 1 0 17q0 6 0 13a4118 4118 0 0 0 1 109q-1 1-3 1-1-1-2-2 0-2 0-4 2-1 3-2-2 0-2 0-7-2-7-3-4 0-8 1 0 0-2 1-1 0-2 0 0 2 0 3-1 0-3-1 1-5 5-7-1-1-2-3-1 1-3 1 0-1 0-2-1 0-2 1-1 0-2 0-2-1-3-3-5 1-7 7 0 1 0 2-1 0-2 0-1-2-3-3 0-2-1-2-1-1-1-2-1 2-2 3-2 1-4 1-1 1-3 1 0-1 0-3-2 0-4 0-2-2-3-5-1 1-2 1t-3-1q0 1 0 2 1 1 2 1-1 2-2 4-2 0-4 0 0 1-1 2-1-1-2-2-2-2-5-2 0 0-2 0 0 1-1 2 2 1 4 2-1 3-2 5 5 2 9 0 1 2 1 3-1 0-2 0 0 2-1 4 1 0 2 0 0 1 0 2 1 5 4 8 0 2 0 3-3 1-6 1 0-1 0-2-1 0-3-1 0-1-1-2-2 2-4 4 0-2 0-2 0-3-1-4-1 3 0 5 0 3-1 6 2 0 3 0 1 5 2 9-1 1-3 1 0-1 0-3-1 1-2 1 1 2 1 2 1 4 1 4 2 3 3 5-1 0-3 0 0 2-1 3 2 1 3 2 0 3 0 5-1 1-2 1 0-2 0-4-1 1-3 1-3-3-4-7 1-1 1-3-1-2-3-4-1 1-1 2-2 1-3 1 1 1 3 2t3 4q0 2 0 3-1 0-3-1 0 3 1 6-1 2-2 4 0 2 0 3-1 0-2-1-3 0-6 2-1 1-2 2-1-1-3-2 0-1 0-2-1 1-2 1-1 3-1 5-1 0-3 0-1 1-2 2-2 1-4 2 0 1 0 2-1 0-2 0 0-2 0-4 1 0 2 0 0-2 0-4-1 0-2 1-2 0-4-1-1 1-2 2 0-1 0-2-1 0-3-1 1-1 2-3-3-1-6-3-1 2-2 2-2 4-4 4-1 0-2-1 1 2 1 3-1 1-2 2 0-1 0-2-1 1-3 1 0-1-1-3-1 0-2-1 1-1 1-2-1 2-3 3 1 1 1 2 1 3 1 7 4 0 7-1 2 3 3 5-3 1-7 1 0-1 0-2-2 0-2 1-1 0-3 0-1-1-3-3-1 0-2 0 0-2 1-4 2-1 4-2-2 0-5 0-1 2-2 3a3285 3285 0 0 0-7-5q1-1 2-3 0-1 0-2-2-1-5-2-2 2-5 4 3 0 5-1 0 8 0 16-3 1-6 1 1 4 1 8-1 0-2 1-3 1-4 3 0-3 0-7-1-1-2-3 0 3-1 5-1 0-3 0-1-1-2-3-1 0-2 0 0-1-1-2-1-2-3-3a2796 2796 0 0 1 4-7q2 0 4 0 2-1 4-2 0-1-1-2 1-1 1-2-1 1-3 1-2-1-3-3 0-3 1-5-1 1-2 1-1 1-2 1-2-1-4-2-2 0-4 1-1 2-2 3 0-2-1-5-1 3-2 6-2 1-5 1-3-2-4-5 0-3 2-7-2-1-5-2 1-1 2-3 0-1-1-3-6 0-10 1 0-1 0-2-3 2-7 3 0-2-1-4-3 0-6-1-1 2-2 4-1 0-3-1-1 1-2 1 0-2 0-4-1 4-2 8-1 0-2 0 0-2 0-4-2 0-4 0 0 2-1 3 1 1 2 2 1-1 2-2 2 2 4 4 0 1-1 2-1 2-2 5-1 0-3 0 0-1 0-2-2 0-2 2-3 1-5 1 1-3 2-5-1 0-2 0 0-3 0-6-3 1-7 1 2 1 5 3-1 1-2 1 0 2 0 3c-11 2-11 2-17-1q1-1 2-2 0-3-1-5-4 1-8 2 0-1 0-2-2 0-4 0 1 4 1 8c-4 2-4 2-8 4q5 0 9-1 0 2-1 3t-3 1q-1 2-2 3 0-1 0-2-2 1-5 1 0 1 0 2-2 1-4 2 0-1-1-3-2-1-4-1 0-3 1-6 2 0 3 0-1-1-2-3 1-1 1-2 2-2 0-4 0-1-1-2 0-1-1-3t-4-5q2 0 3-1 0-1-1-3-1 0-2-1 2 0 4-1 0-1 0-3 0-3 1-5-2 0-4-1 1 0 2 0 0-1-1-3 0 1-1 2-3 1-7 1 0 0-1-1-1 1-3 2 2 3 3 6-1 0-2 0 0-1 0-2-1 1-2 1a12708 12708 0 0 0 1 7q-2 1-4 1 2 0 4 0 0 1 0 2-3 3-8 2 1 3 2 5-2 1-2 1-3 2-4 4 1 0 2 0 0 1 0 2-1 1-3 1 2 1 3 2-1 0-2 1-3 1-5 3-1-3-2-6 0 1-1 2-1 0-2 0 0 2 0 3a27247 27247 0 0 0 8 5q-1 3-2 5 1 1 2 2 1-1 1-2 1-2 3-4 2 2 4 4 2 0 3-1 1-2 1-4 1 1 1 2 0 2-1 3 2 0 4-1 1-1 1-2 1 1 1 2 1 0 2-1-1-2-3-4-1 1-3 1-1 0-1-4 0-1 0-3 2 0 4-1 0 2 0 3 1-1 1-3 3-2 6-5c1 7 1 7 1 10q-1 1-2 1-1 2-1 4 1 0 2 0 6 1 11 4 0-1 0-2 2 0 3 0 2-1 3-3 1 1 1 2t-1 1q1 2 2 4-1 0-3 0 0 2-1 3-2-1-5-2 0 2 1 3 1 3-2 6-5 1-9-2 0 1-1 2-2-1-4-2 0 2 1 4 1 1 2 1 0 2-1 3-1 0-2 0 0-1 0-3-1 0-2 0 0-1-1-2 0 1 0 2 0 2 0 3 1 2 1 4-2 0-4 0 0-2 0-2-1-1-1-3-1 0-2-1 0 2-1 4-3 1-6 1 0-3 0-7-3 0-5 2 0 0-1 1 0-3 0-6-6 0-10 1 0 1-1 2-1-1-3-2 0-1 0-2 2 0 3 0 1-2 1-4 2 0 4 0 1 0 2-1 0-1 0-2-1 0-2 0 0 1-1 2-3-5-3-11-1 0-2-1 3-1 6-1 0 2 0 4 1 1 2 1 0-3-1-7-1 0-3-1 1-1 1-3c-3-4-3-4-8-6q0 3 0 5-1 0-2 0 0 4 0 8 2 1 4 1-1 1-2 2-3 3-4 7 0 1 1 3-2 3-5 6 2 1 3 1 0 1 1 3-2 1-5 1 0-1-1-2 0 2-1 3t-2 1q0 3 0 5-1 0-2 0 0-1 0-2-1 0-2-1 1 0 2 0 0-2-1-4-2 0-4 0 1-2 3-3-3-1-6 0 0 1 1 3-1 1-3 2 0-1 0-3-2 1-4 2 0-1 0-2-1 0-2 0 0 2-1 3 0-1 0-2-1 0-2-1 1 0 2-1 4-1 4-6-1 0-3 0-3 3-4 7-1-1-2-2 0-1 0-3-2-1-4-2 1-1 3-3 0-1-1-2 1-1 2-2 0 1-1 1t-2 0q0 2 0 3-3 0-6-1 1-1 3-3 1 0 2 0-2-1-5-3-1 1-3 2-1 0-2-1 0 2 0 3 2 1 4 1-2 0-4 0 0 1 0 2 2 0 4-1 1 2 2 3-1 0-2 0 0 1-1 2-1 0-2-1 1 3 2 5a1316 1316 0 0 0-5 7q0-2 0-4-1 0-2 0 0-1-1-2-1-2-2-3 0 1-1 2-3 1-5 1-1 3-2 6 1 1 1 2-2 0-5 0 0 1-1 2 0-1 0-3-1 0-2-1 1-2 2-4-1 0-2 0 0-2 0-4-1 1-3 1t-5 0q-1-3-3-7 0 2-1 3 0-1 0-2-1 0-2-1 0 1-1 1-2 1-4 1 0-1 0-2 1 0 2 0 0-1 0-2 1 0 2 0 0-1 0-2 1 0 2 0 0-2 0-2 1-4 4-6 1-2 2-2 1-1 2-2a156390 156390 0 0 0 28-28q11-10 21-21a5215 5215 0 0 1 12-12q2-1 3-2 3-4 8-9 1-2 2-3 1 0 2 0 0-1 0-2 2-2 4-3 4-4 8-9 2-2 4-4 1 0 2 0 0-1 0-2 1 0 2 0 0-1 0-2 1 0 2 0 0-1 0-2 2-1 4-3 5-4 9-10 0 0 1-1 1 0 2 0 1-2 2-4 1 0 2 0 0-1 0-2 1 0 2 0 0-1 0-2 1-1 3-3 3-2 5-5 1 0 2 0 0-1 0-2 2-2 4-3 4-4 8-9 1 0 2 0 0-1 0-2 1 0 2 0 0-1 0-2 2-2 4-4 1 0 2 0 0-1 0-2 3-2 5-5 2-1 3-3 2-2 4-2 0-1 0-2 1 0 2 0 0-1 0-2 1 0 2 0 1-2 2-4 1 0 2 0 0-1 1-2 1-3 4-5a32154 32154 0 0 1 4-4q1 0 1-2 1 0 2-1t2-2q1-1 3-1 0-1 1-2 1-4 5-7a297 297 0 0 0 18-17q2-1 2-2 1-1 2-2 2-2 3-4 1 0 2 0 0-1 0-2 1 0 2 0 0-1 0-2 1 0 2 0 0-1 0-2 1-1 3-3 3-2 5-5 1 0 2 0 0-1 0-2 1 0 2 0 1-2 2-4 1 0 2 0 0-1 1-2 3-4 7-8 0-1 2-2 3-3 6-6a15718 15718 0 0 0 32-32q3-3 6-6 2-1 3-3 1-1 2-2 3-3 5-6 1 0 2 0 0-1 0-2 1 0 2 0 0-1 0-2 1-2 3-3 1 0 2 0 1-1 1-2 1-3 4-6 2 0 2-2a18077 18077 0 0 0 5-4q4-5 8-8a9557 9557 0 0 0 57-57q0 0 2-2 6-6 11-12 18-19 41-9"/>
<path fill="#f6fafb" d="M591 51q3 2 5 3a310 310 0 0 0 21 14q3 2 6 4a933 933 0 0 1 69 44 2029 2029 0 0 0 66 43q23 15 45 29 1 1 2 2c20 13 20 13 22 15q2 5-1 9-3 3-6 6-1 2-3 3a1223 1223 0 0 1-17 18q0 1-1 2t-2 1-1 2q2 5 7 7 3 2 4 3 2 0 2 1 5 3 10 6 1 1 2 2 2 1 3 2 2 1 4 1 4-4 8-8 1-1 1-2 4-5 8-8 0-1 2-3 1 0 2 0 1-1 1-2 1-2 4-5 1-1 2-2a2401 2401 0 0 1 24-23q31 0 55 20a84 84 0 0 1 31 52q2 8-4 13-6 8-14 15-2 2-3 4-1 0-2 0 0 1 0 2-1 0-2 0 0 1-1 2-2 3-5 6t-6 7q-1 1-2 2-1 0-2 0a54 54 0 0 0 12 9q3 3 5 4 3 2 4 3 8 5 15 9a1274 1274 0 0 0 5-7q1-2 2-2 1-1 2-3 2 0 2-2a1785 1785 0 0 1 16-16q2-1 2-2 4-4 9-6 4 0 7 2 2 1 2 1 2 1 3 2t3 2 8 5q2 1 3 2a2170 2170 0 0 1 56 36 1308 1308 0 0 0 72 46q8 6 16 11 23 15 45 29a567 567 0 0 1 32 23c-1 11-14 20-21 27q-3 3-6 6 0 0-2 2t-3 4q-1 0-2 0 0 1-1 2-2 3-5 6-1 2-3 3a3639 3639 0 0 0-7 7q-2 1-2 2-2 2-3 4-1 0-2 0 0 1-1 2-1 4-6 7-1 1-2 2-2 2-3 3a3161 3161 0 0 0-8 8q-2 2-3 4-1 0-2 0 0 1-1 2-1 3-5 5-8 1-13-4-2 0-2-1-3-2-6-4a2249 2249 0 0 0-28-18q-1-2-2-2a4661 4661 0 0 0-44-28q-7-5-13-8a5407 5407 0 0 1-107-70q-2-1-3-1a6871 6871 0 0 0-26-17q-5-3-5-5 0-5 2-8 2-2 2-3 4-3 6-6 1 0 2 0 0-1 0-2 1 0 2 0 1-1 1-2 2-3 5-6 1-2 2-2 2-1 3-3a2260 2260 0 0 0 6-6q2-2 3-4 1 0 2 0 1-2 1-5-1-1-3-2 0 0-2-1-1-1-4-3a2796 2796 0 0 1-25-16q0 1-1 2-2 4-6 7-3 3-6 7-1 0-2 0 0 1-1 2-1 4-6 7-1 2-2 3t-2 2q-3-4-4-9-6-23-23-39-2-2-2-4-1 0-2 0 0-1 0-2-1 0-2-1-4-2-8-5-22-17-48-20 4-6 10-12c4-4 4-4 7-9a395 395 0 0 0-31-21q-4 2-8 6 0 0-2 2 0 1-2 2-2 3-4 5-1 0-2 2-4 5-9 9-2 2-3 4-1 0-2 0 0 1-1 2-3 7-10 10c-7 0-14-6-19-9q-2-1-5-3 0-1-2-2-5-2-8-5-2-1-2-1-7-5-15-10a4101 4101 0 0 1-46-30q-1 0-2-1-9-6-19-12-14-9-28-18a2376 2376 0 0 0-57-37q-2-1-3-2-6-5-14-9-1 0-3-2-3-1-6-3c-14-9-14-9-16-16q1-5 7-9 2-1 3-3 0-1 2-2 2-2 4-5 6-6 13-13 3-3 5-6 1 0 2 0 0-1 0-2 1 0 2 0 0-1 1-2 2-3 5-6 2-2 3-3 0-1 2-2c7-7 7-7 13-14q7-8 15-15 2-2 3-3a6876 6876 0 0 0 5-5q5-5 11-2"/>
<path fill="#438048" d="M899 1124q0 1 1 2 1 2 4 3 2 2 3 3 1 0 2 0 1-1 1-2 2 0 3 0 2-1 3-3c4 6 4 6 4 8q1 0 2 0 0-1-1-3 3-4 6-7 5 2 9 3 0 1 0 2 1 0 2 0 1-1 1-2 2 2 3 5-2 1-4 1 0 3-1 5 1 1 2 1 0-1 0-3 5-3 12-3 3 1 5 2 1 1 2 1t2-1q1 2 1 3-2 1-4 1 1 3 2 5 2 0 3 0 0 92 0 186c-101 0-101 0-144 0q-15 0-29 0-3 0-4 0-25 1-51 1-45 0-89 0-2 0-4 0-118 0-237 0 2-1 3-3 0-2 1-2 5-5 8-8c4-4 4-4 7-8q1 0 2 0 0-1 0-2 3-2 5-4 1-1 1-2 1 0 2 0 0-1 0-2 2-1 4-3 6-5 11-11 2-1 3-3 2-2 4-5 3-3 7-6 1-1 1-2 1 0 2 0 0-1 0-2 2-2 4-4 1 0 2 0 0-1 0-2 1 0 2 0 0-1 0-2 2-2 4-4 1 0 2 0 0-1 0-2 1 0 2 0 0-1 0-2 1 0 2 0 0-1 0-2 1 0 2 0 1-2 2-4 1 0 2 0 0-1 0-2 1 0 2 0 0-1 0-2 1 0 2 0 0-1 0-2 1 0 2 0 0-1 1-2 2-3 5-6 1 0 2 0 0-1 0-2 1 0 2 0 0-1 0-2 1 0 2 0 0-1 1-2 1-3 5-4 1-1 1-2 2-3 5-6 0 0 2-2 1 0 1-1 1 1 2 1 0 1-1 2-1 0-2 0 0 1 0 2-1 0-2 0 0 1 0 2t-1 1q1 0 2 0 1-1 1-2 1 1 2 1 2 1 4 1 1 3 1 6 1 0 2 0 1-1 1-2 3 1 5 1 0 2 0 4 1 0 2 0 0 1-1 2 0 1 0 2 1 1 2 2 2 0 4-1 0-1-1-2 1-3 3-5 3 0 5-1 1-2 2-4 1 3 2 7 3 0 6-1 0-3-1-7 2-1 4-2-2 0-5-1 0-3 0-6 2 0 3 0 1-1 2-2 2 1 3 1 0 1 0 2 2 1 3 1-1 1-2 2-1 0-3 0 3 1 5 2 0-2 0-2 1-1 1-3 1 0 2-1 1 2 1 3-1 1-2 2 1 1 1 2-1 1-3 2 1 1 2 2 3 2 2 4 1-1 1-2 2-4 4-6 2 1 4 2-2 4-6 7 4 2 8 0 1 1 1 2 0-1 0-2 1-2 4-4 2 0 4 1 0 2-1 3t-3 1q2 0 4 0 1 4 1 7 1-3 2-6 1 0 2 0 0-1-1-3 2 0 4-1 0 1 0 2 2 0 4 0-1 0-2-1 0-1 0-2-1 0-2-1 1-3 3-4 1-1 1-2 0-2-1-4 2-4 5-8-1 0-2 1-2-8 2-15 2 0 3-1 4 5 3 6 2 1 3 1 0 2-1 3 1 1 2 1 1 4 1 7-1 0-3-1 1-2 1-4-2 0-5 1a12534 12534 0 0 0 2 8q2 1 5 2 1 2 1 3-3 2-7 2 0 2-1 3-1 0-3-1 0 1 0 2 5 0 10-3 1 0 2 0 2 1 3 2 0 3 0 5 2-2 3-4 2 1 3 2 0 1-1 2 1 1 2 1-1 0-2 0 1 2 1 3 3 0 5 0 0-3 0-7 4 3 5 7 0 1-1 2 2 0 3-1 0-1 0-3-1 0-2-1 1 0 2-1-1-1-2-3 1 0 2 0 1-1 1-2 0 2 0 4 1 0 2 0 0 2 0 3 2-1 3-3-1 0-3-1 0-3-1-6 1 1 2 2 4 2 8 0 2 0 3 0 0 1 0 2 1 0 2 0 0-2 0-4 0-3 0-6 2 0 3 1 4 0 7-1-1-1-2-2 0-1-1-3 0 1-1 1-1 1-2 1t-2-1q0 1 0 2-7-1-14-4 4-7 4-7t-1 0q0-3 0-6 0 1-1 1-3 3-6 6-1-2-2-4 0 4-1 7 2 0 4-1 2 3 3 6-2 0-2 0-3 0-5 2-1 0-2-1 0-2 0-4 0 2-1 3-1 0-2 0 0 1-1 2-1-1-2-2-1 0-2 1 0-1-1-2-1 3-3 5-1-1-3-3 1-3 2-6-1 0-2 0-3-1-5-4 0-3 1-5 2 0 3 0 1 2 2 4 2-1 4-2-1-1-2-2 2 0 4-1 0-1 0-2-1 0-2 0 1-4 5-6-1-2-2-4c6-2 6-2 9-2q-2 0-5-1 1-1 2-2 2 0 3 0-1-3-2-7 2 0 3-1-1-2-2-5 3-1 6-3 0 1 0 2 3 0 6 0 1-1 1-3 0 1 0 2 1 1 1 2 1 1 2 1c-1 6-1 6-1 8q-1 0-2 1 1 1 2 1 0 2-1 3-1 0-2 1 0 1 0 2 1 0 2 1 4 3 4 7 0 1 1 2 1 2-2 5 1 1 2 3-2 0-4 0 1 1 1 2-1 1-2 2 1 1 2 1 2 1 4 3 1 0 3-1 0-1 0-2 1 0 2 0 1-1 1-2 2 0 3 0 1-1 2-2 1 0 1-1-1 0-2 1-2 0-5-1 1-3 5-4 2 0 3 0 0-4-1-8 1 0 2 1 4 0 7-1 3 0 5 0 0 2 0 5-1 1-2 2 3 2 6 0 0 1 0 2 2 0 4-1 1 0 3 0 1-1 2-1 1-1 1-3 0 0-1-1-1 1-2 2 0-2 0-4 2-1 5-2 1 1 2 1 0 2 0 3 1 1 2 1-1 0-2 0 0 1 0 2 1 0 2 0 0 2-1 4 1 0 2-1 2 0 4-1 0 1 0 2 2 0 3 0 0-2-1-4 1 0 3-1 0-1 0-2-2-1-4-2-1 1-2 2-1-3-2-6 4-1 8-3 0 1 0 2-1 0-2 0 0 2 0 4 1 0 2 0 0-2 0-4 1-2 1-4 1 0 2-1 1 2 1 3 2 0 4 0 1-1 1-3c7 2 7 2 9 3q0 1 0 2 1 0 2-1 7-2 13 0 1 2 2 4-1 1-2 2 2 1 4 2 0 2-1 3 0 4 1 8 3 0 6-1 1-2 1-5 1 0 2 0 1 1 2 2 1-1 2-2 0 1 0 2 1 0 2 0 1-1 1-2 2 1 2 1 3 2 6 0 1 2 1 3-1 0-2 0 2 2 4 4 1 0 2 0 1 2 1 4-3 3-6 5-1-1-3-3c-1 4-1 4-2 8q1 0 2 0 0 2 0 4 3 0 5-1-1 1-2 1 2 1 3 1 1-2 2-4 3 3 4 6-1 0-2 0 1 2 1 3 2-1 4-2 0-4 0-8 3-1 5-2 0-1 0-2 0-2 0-3t0-3q0-4 1-7-3 1-6 2 0-1-1-2 2 0 3 0 1-2 1-4 1 1 1 2 1-1 3-2 2 1 4 3 0 1 0 2 1 1 2 1-1 1-3 2 2 1 3 2 1 0 1-1 1 1 2 2 1-1 2-2 3 0 5 1 0 1-1 2-1 0-3 0 0 2-1 4 2 0 4-1 1 2 2 3 3 1 6 1 1 1 2 1 1-1 1-2t-1-3q-1 0-2 1-2 0-5-1 0-1 0-3-1-4-3-7 2-1 4-2 1 3 2 5 2 0 4-1 0-1 0-2 1 0 2 0t2-1q1-3 2-6 5 1 9 5-1 2-2 3 1 1 2 1 1-1 2-2 2 1 3 2 2 0 3 0 0 2 0 4-1 0-2 0 0 2 0 4 1 0 2 0 0-1 0-2 1 0 2 0 0-1 1-2 1-2 3-3 1 0 2-1 1-3 1-5 3 1 5 4 3-1 6-4 2 0 3 0 2-2 4-5-1 0-3-1 2 0 3 0-1-1-3-3 1-1 2-3 1 1 2 1 0-2-1-5-1 0-2-1-1 1-2 2 0-3-1-6 1 0 2 0 2-1 4-2a11811 11811 0 0 0 4 6q-1 0-2 0 0 3 1 6 3 3 5 2 1 1 1 2-1-3-3-7 2-3 3-4-1-1-3-3 1-1 1-3-1-1-2-2 1-1 1-3 1 1 2 1 0 2 0 3 1 0 2-1 0-4-1-9-1 0-3 1-1-4 0-8 0-1-1-2 1-1 2-3 3 4 2 4 1 0 2 0 1-1 1-2 2 2 4 4 0 1 0 2 3-1 5-2-1-4-4-8 0-2 1-4-1 0-2 0 1-3 2-7-4 1-8 2-1-1-2-3 1-2 2-4-1-1-3-2 1-1 1-3 2 0 5 0 2 2 4 4 3-1 5-3 0-1 0-3 0-1 0-2 3 0 5-1"/>
<path fill="#fafdfd" d="M977 785q8 5 15 13 1 1 2 1 4 5 3 6 1 0 2 0 0 1 0 2 1 0 2 0 1 1 3 3 8 9 16 17a3561 3561 0 0 1 44 44q2 1 2 2 5 5 4 6 2 1 4 2 0 1 0 2 1 0 2 0 0 1 0 2 1 0 2 0 1 1 3 3 6 8 14 15 2 2 4 4a6246 6246 0 0 0 22 22q1 0 2 2 2 1 2 2 3 2 2 4 2 1 4 2 0 1 0 2 1 0 2 0 0 1 0 2 1 0 2 0 0 1 0 2 1 0 2 0 1 1 3 3a228 228 0 0 0 24 25q3 3 5 6 7 7 14 13-1 1-2 1-2-1-4-2-1 0-3-1t-3-1a2977 2977 0 0 0-67-32q-6-3-12-5a412 412 0 0 1-37-18 122748 122748 0 0 0 24 93q1 0 1 2c1 6 1 6 0 9q0 0-1-1-4-5-10-9-6-6-13-13-5-6-11-10-4-4-7-7t-6-5a149 149 0 0 1-15-14q-4-4-8-8-2-1-2-2a1027 1027 0 0 1-17-13q0 1-1 2-1 4-6 7-8 9-16 20-2 2-2 3-2 1-2 2-1 1-2 2-1 0-2 0 0 1-1 2-1 2-3 5-1 0-2 0 0 1-1 2-2 4-5 7-1 2-2 3t-2 2q-1 0-2 0a1617 1617 0 0 0-5 9q-2 1-2 2-1 1-2 2-1 0-2 0 0 1-1 2-1 2-3 5-1 0-2 0 0 1-1 2-2 4-5 8-1 2-3 3-2 2-5 4 0-1-1-3a422 422 0 0 0-12-32 474 474 0 0 0-19-51q-4-9-7-19-11 2-23 9-1 0-2 0-3 3-8 5-3 2-7 3a236 236 0 0 0-21 9q-11 5-22 11-13 6-27 12-9 3-17 8-4 3-9 4-1 1-2 1-1 1-3 1-1 1-2 1-1 1-2 1t-2-1q2-2 2-2a7864 7864 0 0 0 18-18q1-1 2-2 3-3 5-6 1 0 2 0 0-1 0-2 1 0 2 0 0-1 0-2 1 0 2 0 0-1 0-2 1-1 3-3 3-2 5-5 1 0 2 0 0-1 0-2 1 0 2 0 1-2 2-4 1 0 2 0 0-1 1-2 3-4 7-8 0-1 2-2 3-3 6-6a15718 15718 0 0 0 32-32q3-3 6-6 2-1 3-3 1-1 2-2 3-3 5-6 1 0 2 0 0-1 0-2 1 0 2 0 0-1 0-2 1-2 3-3 1 0 2 0 1-1 1-2 1-3 4-6 1-1 2-2a18077 18077 0 0 0 5-4q4-5 8-8a9557 9557 0 0 0 57-57q0 0 2-2 6-6 11-12 18-19 41-9"/>
<path fill="#f9fdfd" d="M388 738q9 7 16 16 4 4 7 7t5 6a390 390 0 0 0 32 34q1 1 1 2 5 4 9 9 3 3 6 7 2 2 3 3t2 2a205816 205816 0 0 1 92 101c7 7 7 7 10 11q1 1 2 1 2 3 3 6-5-1-11-4-1-1-3-1-1-1-3-2t-4-2a3534 3534 0 0 1-18-9q-2-1-4-2a3951 3951 0 0 0-59-30q-5-3-11-5-2-1-4-3-1 0-3-1 0 2 1 2 3 12 5 22a681 681 0 0 0 18 70q0 1 0 3 1 0 1 2t-1 5q-1-1-3-3-2-1-3-3 0 0-1-2a27655 27655 0 0 0-4-3q-1-1-4-3 0-1 0-2-1 0-2-1-2-1-5-4-1 0-2-1 0-2-1-2-1-1-2-2a2235 2235 0 0 1-14-14q-1-1-2-2-5-6-11-10-8-8-14-14-3-2-4-5-1 0-3-2t-4-3q0-1 0-2-1 0-2-1-4-3-8-7-2-2-4-2-4 2-6 5-2 2-3 2 0 2-2 3-3 3-5 5-1 1-2 2-2 3-4 2-1 2-2 4-1 0-2 0 0 1 0 2-1 0-2 0a21745 21745 0 0 0-5 7q-1 0-2 0 0 2-1 3-1 0-2 0-1 2-2 4-1 0-2 0 0 1-1 2-3 4-7 7-1 2-2 3-1 0-2 0-1 2-2 4-1 0-2 0 0 1 0 2-1 0-2 0 0 1 0 2-1 1-3 3-7 6-15 14-1 1-2 2 0 1-2 2-1 1-3 1 0 1 0 2-1 0-2 0 0 1 0 2-1 0-2 0-1 2-2 4-3-5-3-11a860 860 0 0 0-10-64q-1-1-1-3 0-1 0-3-1-1-1-3 0-3 0-7-7 3-15 6-12 7-25 13-1 0-2 1a11777 11777 0 0 1-109 51q2-4 5-8 1 0 2-2 1-1 2-2t2-2q6-6 12-12 4-4 7-8 3-3 6-6 5-4 8-9 5-5 8-8 5-4 8-9 6-6 12-12 2-2 3-4 1 0 2 0 0-1 1-2 2-4 7-8 6-6 11-12 4-4 8-8 3-3 5-6 5-4 9-9 5-4 8-9 5-5 10-10 6-6 11-12 5-5 9-9 5-5 9-10 5-4 9-9 2-2 3-4 1 0 2 0 0-1 1-2 2-3 5-6 1-2 2-2 2-1 3-3a2036 2036 0 0 0 6-6q2-2 3-4 1 0 2 0 0-1 1-2 2-4 6-7 1-2 3-3 2-2 4-2 0-1 0-2 2-1 5-3 0-1 2-2 19-8 36 3"/>
<path fill="#d9e4e7" d="M961 782c13 0 20 5 29 14q1 1 2 2 5 5 5 5 0 1 0 2 1 0 2 0 0 1 0 2 1 0 2 0 1 1 3 3 8 9 16 17a3561 3561 0 0 1 44 44q2 1 2 2 5 5 4 6 2 1 4 2 0 1 0 2 1 0 2 0 0 1 0 2 1 0 2 0 1 1 3 3 6 8 14 15 2 2 4 4a6246 6246 0 0 0 22 22q1 0 2 2 2 1 2 2 3 2 2 4 2 1 4 2 0 1 0 2 1 0 2 0 0 1 0 2 1 0 2 0 0 1 0 2 1 0 2 0 1 1 3 3a228 228 0 0 0 24 25q3 3 5 6 7 7 14 13-1 1-2 1-2-1-4-2-2 0-3-1-2-1-3-1a2977 2977 0 0 0-67-32q-6-3-12-5a412 412 0 0 1-37-18 122748 122748 0 0 0 24 93q1 0 1 2c1 6 1 6 0 9q0 0-1-1-4-5-10-9-6-6-13-13-5-6-11-10-4-4-7-7t-6-5a149 149 0 0 1-15-14q-4-4-8-8-2-1-2-2a1027 1027 0 0 1-17-13q0 1-1 2-1 4-6 7a285 285 0 0 0-20 24q0 0-1 0a174451 174451 0 0 1 1-206q-1 0-2-1"/>
<path fill="#d9e4e7" d="M361 732q17-2 30 8 7 6 13 14 4 4 7 7t5 6a389 389 0 0 0 32 34q1 1 1 2a9965 9965 0 0 1 16 16q0 2 2 3 1 0 2 2 5 5 5 5 2 3 3 4a3903 3903 0 0 1 85 92c6 7 6 7 9 11q1 1 2 1 2 3 3 6-5-1-11-4-1-1-3-1-2-1-3-2a4927 4927 0 0 0-22-11q-2-1-4-2a4130 4130 0 0 0-59-30q-6-3-11-5-2-1-4-3-2 0-3-1 0 2 1 2 3 12 5 22a685 685 0 0 0 15 62q1 2 1 3a828 828 0 0 0 3 10q0 2-1 5-1-1-3-3-1-1-3-3a3497 3497 0 0 1-3-3q-1-1-2-2 0-1-4-3 0-1 0-2-1 0-2-1-2-1-5-4-1 0-2-1-1-2-1-2-2-2-2-2a2095 2095 0 0 1-14-14q-1-1-2-2-5-6-11-10-8-8-14-14-3-2-4-5-2 0-3-2-2-2-4-3 0-1 0-2-1 0-2-1-4-3-8-7-2-2-4-2-3 1-6 4 0 2-2 2 0 1-2 3 0 0-2 2t-5 5q-1 0-2-1 0-89 0-182-3 0-7 0 0 0 0-1"/>
<path fill="#40c5d6" d="M421 560q6 8 8 18 12 42 37 80 0 1 1 2 5 6 9 12 0 1 1 2 12 14 24 27 1 1 2 2a197 197 0 0 0 28 25 295 295 0 0 0 243 55q9-3 16 1 6 4 6 9 1 6-1 11-9 8-20 9-1 0-3 1a324 324 0 0 1-301-103c-33-35-69-91-73-141q1-6 5-10 9-6 18 0"/>
<path fill="#f8fcfc" d="M728 402q10 7 19 14-2 5-5 11 0 0-1 1a732 732 0 0 1-24 37q0 2-1 3-4 6-7 11 1 0 3 1 4 1 7 5 0 1 0 2 1-1 2-1 2-3 4-2 0-1 0-2 1-1 3-3 6-5 10-9a179 179 0 0 1 17-16q9-9 18-16c21 20 45 47 49 77q1 9-4 15-8 6-19 5-16-1-31-9-1-1-2-1-22-10-40-24-2-1-4-2 0 1 0 2-2 9-11 13-7 3-15-1-8-3-11-12-2-10 4-17 4-4 9-5c-4-5-4-5-9-10-19-21-42-48-41-77q0-5 3-9c21-16 59 8 77 19"/>
<path fill="#40c5d6" d="M494 529q5 3 9 8 2 6 3 11c15 53 48 98 95 126q1 1 2 1 17 10 35 17 1 1 4 1 32 11 67 11 2 0 3 0 25 0 50-6 6 0 11 2 6 5 7 12 0 7-5 12-7 4-14 5-2 0-3 0-21 5-40 5-1 0-2 0c-60 2-119-21-163-60q-1-1-2-2a193 193 0 0 1-30-31c-19-24-47-67-45-100q2-7 8-11 5-2 10-1"/>
<path fill="#40c5d6" d="M566 502q7 3 9 9 2 5 3 11 8 35 32 60 1 2 1 4 1 0 2 0 0 1 0 2 1 0 2 0 0 1 0 2 1 0 2 0 0 1 0 2a2013 2013 0 0 0 8 6 137 137 0 0 0 118 25q8-2 16 2 6 5 5 12 0 6-4 10-7 5-18 7-1 0-3 0c-36 7-74 1-106-17q-1 0-2-1-14-7-26-18-2-1-2-2-1 0-2-1 0-1 0-2-1 0-2-1-3-2-7-5-1-1-2-3-2-2-2-4-1 0-2 0a139 139 0 0 1-7-9c-15-21-31-49-31-75q0-1 0-3 0-3 2-6 1 0 2 0 0-1 0-2 7-4 14-3"/>
<path fill="#1c5191" d="M1081 396q4 2 8 5 10 7 21 14 2 1 4 2 6 5 14 9 3 2 5 3a1683 1683 0 0 1 11 9q-2 1-3 3-1 1-4 4-1 0-1 1-6 5-9 10a219 219 0 0 1-17 17q-1 1-2 2-2 2-3 4-1 0-2 0 0 1 0 2-1 0-2 0 0 1-1 2-2 4-7 8-3 3-6 7-1 0-2 0a1277 1277 0 0 0-5 8q-1 1-2 2-2 1-4 1-4-2-7-4-1-2-3-2-2-1-2-2-5-2-9-5-1-1-2-2a1046 1046 0 0 0-39-25q1-5 6-9 5-5 9-9 4-5 10-11 2-2 4-5 1 0 2 0 0-1 1-2 2-3 5-6 2-1 3-3 2-1 3-3a277 277 0 0 0 21-22q0-1 1-2 2-1 4-1"/>
<path fill="#1c5191" d="M1001 345q1 0 2 0 0 1 0 2a10500 10500 0 0 0 10 5q1 0 2 2 2 0 3 1 2 2 3 2a5043 5043 0 0 1 36 24q2 1 2 1 2 1 3 2 1 0 2 1 0 1 1 1 0 1 0 2-2 2-5 4 0 1-1 2-1 0-2 0 0 1-1 2-2 3-5 6-1 2-2 2-1 2-3 3-2 2-4 4t-2 2q-2 2-3 4-1 0-2 0 0 1-1 2-2 3-5 6-1 2-2 2-1 2-3 3a2260 2260 0 0 0-6 6q-2 2-3 4-1 0-2 0 0 1-1 2-1 2-4 5-1 1-2 2a1839 1839 0 0 0-5 5q-1 1-2 2t-2 3q-5-3-11-6a636 636 0 0 0-53-35q2-4 5-7 2-2 2-2 2-2 2-2c6-6 6-6 11-11q1-2 2-3 1 0 2 0 0-1 0-2 1 0 2 0 0-1 1-2 2-4 7-8 4-4 9-10 8-8 14-14 3-3 6-6 1 0 2-2 2-2 3-4"/>
<path fill="#1c5191" d="M663 120q7 3 13 7 2 1 3 1a437 437 0 0 1 25 16q0 1 0 2 1 0 2 1 6 3 12 7 1 1 2 1 2 2 2 2 2 1 3 1 1 2 1 6-1 2-3 4-2 1-3 2t-2 2c-6 6-6 6-12 13q-8 8-17 17-6 6-12 13-5 5-10 11-3 3-6 7-6-2-10-5-2 0-2-2-1 0-3-1-1-2-3-2a829 829 0 0 1-30-20q-1 0-3-1-3-3-6-4-1-1-3-2a4221 4221 0 0 0-4-3q0-4 1-6 2-1 2-2 2-1 3-2 0-1 2-2 8-7 14-15 6-6 13-13 6-6 11-12 5-4 9-9 6-6 11-12"/>
<path fill="#1c5191" d="M1158 447q5 2 9 5 2 0 2 1 2 1 3 2 2 1 3 1 4 3 7 5 1 1 2 1a2938 2938 0 0 1 18 12q1 0 3 1 3 3 6 4 0 1 2 2a5017 5017 0 0 0 9 7q-12 14-26 27-3 3-5 6-1 0-2 0 0 1-1 2-2 4-6 7 0 1-1 2a1290 1290 0 0 1-11 10q-1 1-2 2-4 5-10 10 0 1-1 2 0 1-1 2-2 1-4 1-3-1-7-4 0 0-2-2-1 0-3-1-3-2-6-5-2 0-4-2-8-5-15-10a3706 3706 0 0 1-25-16q6-9 15-17 5-4 9-9 5-7 12-13 5-5 8-9 8-8 14-14a8403 8403 0 0 1 10-10"/>
<path fill="#1c5191" d="M741 171q6 0 11 5 1 0 2 1 1 2 4 2 5 4 9 7 2 0 2 1a630 630 0 0 0 36 23q-3 4-6 7-1 2-2 2-2 1-2 3-2 1-2 2-2 2-4 2 0 1 0 2-1 0-2 0 0 1-1 2-3 5-7 8c-6 5-6 5-10 11q-6 6-12 12t-10 11q-5 6-10 10-6-2-10-5-1-1-3-2-1-1-3-2t-3-2q-6-3-11-7-1-1-2-1-6-5-12-8-2-1-3-2-9-5-16-11 5-6 5-7 1 0 2 0 0-1 1-2 2-4 6-8a2827 2827 0 0 1 15-14q3-3 5-6 1 0 2 0 0-1 1-2 1-3 6-7 0-1 2-2t3-3q3-3 6-6 1-1 2-2 2-2 3-4 1 0 2 0 0-1 0-2 1 0 2 0 0-1 1-2 1-2 3-4"/>
<path fill="#1c5191" d="M587 70q15 8 28 18a2433 2433 0 0 0 34 22q-1 4-4 7-1 0-2 0 0 1-1 2-1 2-4 5-1 1-2 2 0 1-2 2-6 6-12 13-5 5-10 10-3 3-5 6-1 0-2 0 0 1-1 2-2 3-5 6-2 2-3 3a4034 4034 0 0 0-8 8q-1 1-2 2-2 2-3 4-4-1-8-3-1-1-2-2-2 0-2-1a591398 591398 0 0 1-45-29q-3-2-7-4 2-4 5-7 1-2 2-2a2539 2539 0 0 1 6-6q0 0 2-2 1-1 2-3 1 0 2 0 0-1 1-2 2-4 6-8a2827 2827 0 0 1 15-14q3-3 5-6 1 0 2 0 0-1 0-2 1 0 2 0 1-1 1-2 1-3 4-6 1-1 2-2 2 0 3-2a1573 1573 0 0 0 6-5q1-2 2-4"/>
<path fill="#215360" d="M367 702q2 0 3 0 13 0 25 5 0 1 0 2 2 0 3 1 7 2 13 7a2718 2718 0 0 1 4 3q0 1 0 2 1 0 2 1 9 5 14 14 3 3 4 4 3 2 2 4 1 0 2 0 2 2 4 5 1 1 1 1 3 3 6 7 5 6 9 10c8 8 8 8 10 13q2 1 4 2t3 2q0 1 0 2 1 0 2 0a783 783 0 0 1 3 5q3 1 5 5 2 2 5 4 0 1 0 2 1 0 2 0 7 7 13 16 0 1 0 2 1 0 2 0 1 2 1 4 1 0 2 0 0 1 0 2 2 1 4 2 0 1 0 2 1 0 2 0 1 2 3 4 4 4 10 10 1 1 1 3 1 0 2 0 0 1 0 2 2 1 4 2 0 1 0 2 1 0 2 1 4 2 7 6 1 2 1 4 1 0 2 1 4 2 6 6 5 5 9 10 1 2 4 4 1 1 1 2 3 3 4 6 1 0 2 0 4 3 3 6 1 0 2 0 0 1 0 2 2 0 2 1 4 1 6 4 0 1 0 2 1 0 2 1 4 2 6 6 1 2 3 3 0 1 0 3 1 0 2 0 2 2 3 4 1 1 2 2 1 2 1 4 2 0 3 1a331 331 0 0 1 8 8q0 1 0 2 2 0 3 1 2 2 4 5 4 5 9 9 4 4 3 6 2 0 3 1 2 1 3 3t2 3a541 541 0 0 1 18 22q1 0 2 1 4 3 6 7 0 1 0 2 1 0 2 1 2 1 3 4 4 0 8 0 0-2 0-3 1 0 2 0 1-1 1-2 1-2 5-5 2-2 4-5 1 0 2 0 0-1 0-2 1 0 2 0 1-2 1-3 1-2 3-3 1 0 2 0 0-1 0-2 1 0 2 0 1-2 1-3c5-5 5-5 8-5q1-1 1-2 2-4 6-6 1-1 1-2 1 0 2 0 1-2 1-3 1 0 2 0 1-1 1-2 1-4 6-7 1-2 2-5 2-3 6-4 1-2 2-3 1 0 2 0a1851 1851 0 0 0 6-7q0-2 2-2 2-2 5-4 5-4 9-10 1-1 2-2 1 0 2 0 0-1 1-2 1-3 4-5 4-4 7-7 5-5 9-9t7-8q3-3 7-6 1 0 2 0 1-1 1-2 1-3 4-5 5-3 8-8 3-2 5-4 1-2 2-3 1 0 2 0 1-2 2-4 1 0 2 0a1093 1093 0 0 0 5-9q2 0 3 0 1-2 1-3 1 0 2 0 0-1 1-2 2-3 5-6 1 0 2 0 1-2 1-4 2 0 3 0 1-2 2-4 1 0 2 0 0-1 1-2 1-3 5-4 0-1 0-2 2-1 4-4 2 0 4-4 1-1 2-2 1 0 2 0 0-1 0-2 1 0 2 0 1-2 1-3a139 139 0 0 1 9-9q0 0 2-1 1-2 2-4 1 0 2 0 0-1 0-2 3-3 5-5 1-1 2-2c7-6 7-6 9-6q0-1 0-2a65 65 0 0 1 38-19 60 60 0 0 1 31 4q10 3 19 11 0 1 0 2 1 0 2 1 2 1 3 4 2 0 3 1 3 2 5 5 1 0 2 1 0 1 0 2 1 0 2 1a79 79 0 0 1 5 5q1 2 1 4 2 0 3 0 0 1 0 2 1 0 2 1 4 2 7 7 5 5 12 11 3 3 6 6 2 1 3 3 3 2 2 4 1 0 2 1 4 2 7 6c4 5 4 5 9 9q0 1 0 2 1 0 2 1 3 1 4 5 1 0 2 0 1 2 1 4 1 0 2 0 0 1 0 2 1 0 2 1 4 2 7 6a1793 1793 0 0 1 9 9q0 1 0 2 2 0 3 0 0 1 0 2 1 0 2 0 0 1 0 2 1 0 2 0 2 2 4 5 2 2 2 3 3 2 2 4 1 0 2 1 3 1 5 4 0 1 0 2 1 0 2 1 4 2 7 5 2 3 4 5 2 0 3 2 0 1 0 2 2 0 3 0 2 2 3 4a143 143 0 0 0 25 26q0 1 0 2 1 0 2 0 0 1 0 2 2 0 3 1t1 2q3 5 8 8 4 2 6 6 0 1 0 2 1 0 2 0 3 2 5 5 2 1 4 2 0 1 0 2 1 0 2 1 1 2 1 4 1 0 2 0 1 1 3 3 4 6 10 11 1 1 1 3 1 0 2 1 3 2 6 5 0 1 0 2 3 1 5 2 0 1 0 2 2 0 3 1 5 4 4 7 1 0 2 1 6 2 8 7 4 3 7 6 0 1 0 2 1 0 2 0 5 4 9 10 0 1 0 2 1 0 2 0 0 1 0 2 1 0 2 1 4 3 7 7 2 1 3 2 0 1 0 2 1 0 2 0 0 1 1 2 1 4 5 5 6 4 11 10 1 2 4 4 0 1 0 2 2 1 3 1 0 1 0 2 2 1 3 1 1 2 3 4 2 4 6 6 3 2 2 5 0 0 0 2-6-4-10-9-1-1-3-2 0-1 0-2-1 0-3-1-1-1-3-3-1-1-2-2-2-2-2-4-1 0-3-1-2-2-4-5-1 0-2-1 0-1 0-2-1 0-2 0 0-1 0-2-1 0-2-1-2-2-5-5-2-4-8-7-3-3-5-5 0-1 0-2-1 0-2 0-2-3-4-6-1-1-3-2 0-1 0-2-1 0-2 0-5-3-8-8-1-2-3-4-1-1-2-2 0-1 0-2-1 0-2-1-3-1-6-3 0-1 0-2-1 0-2 0c-4-5-4-5-4-8q-1 0-3 0 0-1 0-2-1 0-2 0 0-1 0-2a613 613 0 0 0-8-6q0-1 0-2-1 0-2 0-2-3-4-5-1-1-2-1 0-1 0-2-1 0-2 0-2-2-3-4-4-6-9-10-1-1-2-2 0-2-4-3-2-2-3-4-4-3-8-7t-8-9q0-1 0-2a613 613 0 0 0-8-6q0-1 0-2a613 613 0 0 0-8-6q0-1 0-2-1-1-3-1-1-2-2-4-2-2-4-4-6-4-7-6 0-1 0-2-1 0-2 0 0-1 0-2-1 0-2-1-2 0-3-4-1-1-3-1-2-3-5-5-1-1-2-2t-1-3q-1 0-2 0 0-1 0-2-1 0-2-1-3-1-4-5-1 0-2 0-2-2-3-4-5-6-11-10-2-3-4-5-1-1-2-2-2-2-4-4 0-1 0-2a613 613 0 0 0-8-6q0-1 0-2-1 0-2 0c-5-4-5-4-6-8q-1 0-2 0 0-1 0-2-1 0-2-1-2-1-5-4-3-4-7-8-4-3-9-9-2-1-2-2-2-2-2-4-1 0-2-1-4-1-6-4 0-1 0-2a613 613 0 0 0-8-6q0-1 0-2-1 0-2 0-2-2-3-4-1-1-2-2-2-1-3-4-4-5-8-6 0-2 0-3-1 0-2 0-4-2-6-5t-5-5q0-1 0-2-1 0-2 0 0-1 0-2-2-1-4-1 0-1 0-2-1 0-2-1-4-1-9-4-1 0-3-1-1-1-4-2-7-2-15-1-2 0-3 0-13-1-25 6-4 3-6 2 0 1 0 2-3 1-5 3-2 1-4 4-1 0-2 0a5156 5156 0 0 1-6 7q-6 6-10 11-1 1-2 2-1 0-2 0 0 1-1 3-1 0-3 1 0 1-1 2-2 4-6 7-3 3-7 8-3 3-5 4-7 5-11 11-2 2-4 4-1 0-2 0-1 2-2 4-1 0-2 0 0 1-1 2-1 3-5 4 0 1 0 2-1 1-4 3-1 3-4 6-3 5-8 9-2 0-5 4-2 3-6 4 0 1 0 2-1 0-2 0 0 1-1 2-1 4-6 7-1 0-2 0 0 1-1 2-1 3-4 5-4 3-8 8-2 3-5 4-1 1-2 3-1 0-2 0 0 1-1 3-1 0-2 0a21745 21745 0 0 0-5 7q-1 0-2 0 0 2-1 4-1 0-2 0 0 1 0 2-2 4-5 6 0 1-2 1-3 3-6 4 0 1 0 2-2 1-4 3t-5 4q0 1-2 3-1 0-2 0 0 1 0 2-2 4-7 7 0 1-1 2-1 0-2 0 0 1-1 2-3 4-7 8a8390 8390 0 0 0-13 13q-2 3-4 2 0 1-1 2-1 3-4 5-1 1-1 2-8 7-15 14-5 5-11 11 0 1-5 1 0-1 0-2-1 0-3 0 0-1 0-2-1 0-2 0-2-2-4-4-1-2-3-4-1-2-1-4-1 0-2 0-1-2-4-4-2-3-4-5-5-3-4-6-1 0-2 0 0-1 0-2-1 0-2 0 0-2 0-3-1 0-2 0c-5-4-5-4-6-8q-1-1-3-1-1-3-2-5-1 0-2 0-1-1-3-3-2-3-5-5 0-1 0-2-1 0-2 0-1-3-3-5 0-2-4-4 0-1 0-2-1-1-3-1 0-1 0-2-1-1-3-1 0-2 0-3-2 0-2-1-4-1-6-6-1-2-3-3-1-1-3-3 0-1 0-2-1-1-3-1 0-1 0-2-1 0-2 0-4-3-5-7-1-1-3-2 0-1 0-2-1 0-2 0-4-3-3-6-1 0-2-1-2 0-3-4-1-1-2-1-3-3-5-6-2-2-4-3 0-1 0-2-1 0-2 0-1-2-2-3-2-3-5-4-3-5-6-9-2-2-5-3-2-3-4-5-4-5-9-11-4-3-7-7-2-2-4-4-1-1-1-3-1 0-2 0-2-3-4-5-3-3-6-7-1-1-1-3-1 0-2 0c-5-5-5-5-5-8q-1 0-2 0-2-3-4-5-1-1-3-2 0-1-2-2 0-1 0-2-1-1-2-1-1-2-3-3-3-4-6-7-3-2-2-4-1 0-2 0-2-3-5-6-1-1-2-1 0-1 0-2-1 0-2-1-4-1-6-6 0-1 0-2-1-1-3-1 0-1 0-2-1 0-2 0-2-2-3-4-3-4-7-8-4-3-9-9 0-1 0-2-1-1-3-1-2-1-3-3 0-2 0-3-2 0-2-1-4-1-6-6-1-1-2-2 0 0-1-1 0-1 0-2-2-1-4-1 0-1 0-2-2-1-4-1 0-1 0-2-1 0-3 0 0-1 0-2a6745 6745 0 0 0-12-5c-14-6-32-5-46 0a82 82 0 0 0-31 25q-1 0-2 0 0 1 0 2-1 0-2 0 0 1 0 2-4 5-7 4 0 1 0 2-1 4-5 4-1 2-2 4-1 1-3 3-3 3-6 7-4 6-10 10-1 0-2 0 0 1-1 2-1 4-6 7-1 0-2 0 0 1 0 2-1 4-6 7-1 1-3 3-4 5-9 9-1 1-2 3-1 0-2 0 0 1-1 2-2 4-5 7-1 0-3 0 0 1-1 2-2 3-5 6-2 3-5 7-1 0-2 0 0 1 0 2-1 0-2 0 0 1 0 2-2 2-5 5c-9 9-9 9-17 18q-1 1-1 1-1 0-2 0 0 1 0 3-2 2-5 5t-7 8q-3 3-7 7 0 1-1 2-1 0-2 0 0 1 0 2c-5 5-5 5-8 5q0 1-1 2-2 4-6 8-1 0-2 0 0 1-1 2-1 3-4 5-1 0-2 0 0 1 0 2-1 1-3 3 0 1-1 2-1 0-2 0 0 1 0 2-2 0-2 1-1 0-3 1 0 1 0 2-2 4-5 7-1 1-2 2-2 3-4 2 0 1-1 2-1 2-4 5-1 1-2 2t-2 2q0 0-1 2-1 1-2 1-1 1-2 2t-3 1q0 2-1 4-1 0-2 0 0 1 0 2-1 0-2 0 0 1-1 3-1 0-2 0 0 1-1 2-2 4-6 7-4 5-9 11-1 1-2 2-1 0-2 0 0 1-1 3-1 0-2 0 0 2-1 4-1 0-2 0 0 1-1 3-1 0-2 0 0 1-1 2-1 3-6 7-3 3-5 6-1 0-2 0 0 1-1 2-4 7-11 13-3 2-6 5 0 2-2 3-1 0-2 0 0 1 0 2-1 4-6 7a722 722 0 0 0-10 10q-2 2-4 5-1 0-2 0 0 1-1 2 0 2-4 3 0 1 0 2-1 0-2 0-1 2-2 4-1 0-2 0-1 2-2 4-1 0-2 0-1-3 0-6 3-3 6-4 5-5 9-10 3-3 7-6 4-4 7-10 2-3 5-5 1 0 2 0 0-1 0-2 3-5 8-8 2-2 3-4 2-3 5-5 4-2 6-6 1 0 2 0 0-1 1-2 2-3 5-6t6-7q1 0 2 0 0-1 0-2 1 0 2 0 1-2 1-3 1 0 2 0 0-2 0-3 1 0 2 0 0-1 1-2 1-3 5-4 1-2 1-3 1-1 2-1 2-3 3-5 2-4 6-6 0-1 1-2 3-4 7-7 1 0 2 0 0-1 1-2 2-4 6-7 1-1 2-2t3-1q0-1 1-2 2-3 5-6 1 0 2 0 0-1 1-2 2-4 5-8 1-1 1-2 1 0 2 0 0-1 0-2 2-1 4-2 0-1 0-2 2-1 2-2 4-2 5-6 2-2 4-4 2 0 3 0 0-1 1-2 3-5 8-8 4-2 4-5a2143 2143 0 0 1 10-11c6-8 6-8 10-9q2-2 4-5 2-2 3-5 1 0 2 0 1-2 1-3 4-4 7-7 4-3 7-7 2-3 5-6 2 0 3 0 0-1 0-2 1-2 4-5 2-2 2-2 3-3 5-5 5-5 8-10 3-3 6-4 2-2 3-4 1 0 2-2 1 0 2-2 2-3 4-5 1-1 2-2 2-2 4-2 1-1 1-2 1-3 4-6 1 0 2-2 1-1 3-1 0-1 0-2 2-3 5-5 6-5 11-11 0-1 1-2 1 0 2 0 0-1 0-2a14974 14974 0 0 1 8-9q1 0 2 0 0-1 0-2 2-2 4-3a3106 3106 0 0 0 12-12q20-22 49-23"/>
<path fill="#f7fbfb" d="M796 378q34 28 46 70 1 1 1 4 6 27-1 54-2-1-3-3 0-1-1-3a151 151 0 0 0-40-65 205 205 0 0 0-31-29q-13-10-27-19-2 0-2-1-30-20-65-27 0-1 0-2c42-16 88-7 123 21"/>
<path fill="#f8fbfc" d="M973 174q30 19 41 51 2 17-9 30-1 0-2 0 0 1-1 2-2 3-5 6-6 7-12 13-3-4-4-9-4-13-13-25-1-1-2-3-24-31-61-41-4-1-8-3a554 554 0 0 1 8-10c13-14 13-14 21-18q1 0 2-1c14-7 32 0 45 8"/>
<path fill="#40c4d5" d="M567 854q11 3 21 6 30 10 61 16 1 0 3 0 65 11 130-1 1 1 1 2-1 0-2 0 0 1 0 2a139 139 0 0 1-9 9q-1 1-4 4 0 1-2 2-5 5-10 10-1 0-2 2c-11 7-32 4-44 4q-2 0-3 0-38 0-75-7-1 0-3-1-6 0-10-2-2 0-4 0-10-3-16-10-1-1-2-2-3-3-6-6 0-2-2-2a2549 2549 0 0 1-10-11q-2-2-3-3 0-1-1-2-5-4-8-10"/>
<path fill="#40c5d6" d="M638 483q3 4 4 11 0 1 0 4 0 0 1 2 3 21 17 35 1 1 2 2a66 66 0 0 0 49 20q1 0 2 0 7 1 15-2 8-2 15 2 6 5 5 12 0 6-4 10c-13 10-33 8-48 7a100 100 0 0 1-81-78q0-1-1-3-3-10 2-20 3-5 8-6 9 0 14 4"/>
<path fill="#f7fbfb" d="M792 323q2 0 2 0 10 0 18 3 2 1 2 1a94 94 0 0 1 32 23q18 17 19 41 0 6-3 10-6 6-15 5-7-4-9-11-6-8-14-17-2-2-3-5-1 0-2 0 0-1 0-2a1692 1692 0 0 1-7-5q-17-13-36-23c0-10 0-10 1-13q1-2 1-2 5-6 14-5"/>
<path fill="#f5fafa" d="M227 125q1 0 2 0a414 414 0 0 1 11 34q1 2 1 3 1 3 1 5 2 0 3 1 12 2 23 6a8227 8227 0 0 0 16 5q0 2-4 3-3 1-4 2-1 0-3 0-3 1-7 3a4304 4304 0 0 0-13 4q-1 0-2 0-3 1-6 2t-5 4a15416 15416 0 0 1-11 39q-2 0-3-4-1-3-1-4-1-1-1-3a1473 1473 0 0 1-6-20q0-1 0-2-1-3-2-6 0-3-4-5-1 0-3-1-2 0-4-1-1 0-4-1-2 0-4-1a911 911 0 0 0-24-7q0-1 0-2c19-6 19-6 23-7q3-1 7-2 1-1 3-1 1-1 3-1 3-1 7-1a7041 7041 0 0 0 3-16q1-1 1-2a2106 2106 0 0 1 7-24"/>
<path fill="#40c5d6" d="M335 590q1 1 2 1 0 1 0 2 1 0 2 0 4 10 7 19 10 33 25 63 3 3 2 5-1 0-2 0-4 1-9 1-1 1-3 1-1 0-3 0-1 0-3 1-4 1-9 1-15-32-26-65 0-2-1-3-4-10-1-20 7-11 19-6"/>
<path fill="#205391" d="M749 351q2 1 3 1 25 9 45 23 0 1 0 2 1 0 2 0 0 1 0 2 1 0 2 1c8 4 14 14 20 21q1 2 2 2 29 41 24 92-2 7 0 14-3 0-5-1-1 1-2 2-1-1-3-2-3 1-5 3 0 2 0 3-1 0-2 0 0 2-1 3 1 1 2 2-1 0-2 0-1 5-2 10 1 1 2 1-1 1-2 2-1-2-2-5-1 0-2 0 0 2 0 4-2 2-4 3-1 0-3 1-3 1-7 1 0-1 0-2 2 0 3-1 6-3 8-8c4-16-5-32-13-45q-14-22-33-40 0-1 1-3 0 1 0 2a4601 4601 0 0 1 8 6q0 1 0 2 1 0 2 0 0 1 0 2 1 0 2 0 0 1 0 2 1 0 2 0 0 1 0 2 1 0 2 0 3 3 5 6 1 2 2 2 4 6 3 7 1 0 2 0 2 3 4 6 1 2 2 4 1 1 2 3t2 3 3 0q1 1 3 1 2 3 3 6 1 2 1 2 0 1 1 2 1 0 2 0 0 1 0 2 3-1 6-2-1 0-2-1-1 1-3 1 0-2 0-5 2 0 3 0-1 0-3-1-1 2-2 3 0-1 0-2-1-1-1-2-1 0-3-1 1 0 1-1 2-2 4-5 1 1 1 1 2-3 0-7-1 0-2 0-2-2-3-5-1-1-2-3t-1-4q-1 0-2 0c-4-5-4-5-4-8q-1 0-2 0 0-1 0-3-1 0-3-1-2-3-5-6 0 0-1-2-4-4-3-6-1 0-2-1-3-1-4-5-1 0-2 0 0-1 0-2-1 0-2 0 0-1 0-2-1 0-2-1-4-2-7-5 0-1 0-2-1 0-2-1-4-2-7-5 0-1 0-2-1 0-3-1-4-1-7-5 0-1 0-2-2-1-5-2 0-1 0-2-2-1-5-2 0-1 0-2-1 0-2-1-4-2-8-4a225 225 0 0 0-21-12q-1-1-4-2a2492 2492 0 0 0-9-5q-9-4-20-7-2-1-4-1-4-2-9-3 0 0 0-1c33 2 66 25 91 45q2 1 3 2 23 19 42 42 1 1 2 2 20 24 29 55c9-24 3-53-6-75q-10-23-28-41-1-1-2-2c-21-23-55-36-86-37q-21-1-41 6-2 2-5 0c19-13 55-13 76-5"/>
<path fill="#2a5867" d="M828 211q0 1 1 2a95 95 0 0 1-13 14q-2 2-2 2-2 2-3 4-1 0-2 0-1 2-2 4-1 0-2 0 0 1 0 2-1 0-2 0 0 1-1 2-1 2-2 4t-1 4q1 0 2 1 6 2 10 5 0 1 0 2 2 0 3 1 5 2 9 6 2 1 5 2 1-1 1-3 1 0 2 0 0-1 0-2 1 0 2 0 0-1 0-2 0-2 4-3 0 0 2-1 0-1 0-2 1 0 2 0 0-1 0-2 1 0 2 0 0-1 0-2 1 0 2 0 0-1 1-2 2-4 7-8c3-4 3-4 6-8q1 0 2 0 0-1 0-2 1 0 2 0 0-1 0-2 1 0 2 0 0-1 0-2 1 0 2 0 0-1 0-2 1 0 2 0 0-1 0-2 1 0 2 0 0-1 0-2 1 0 2 0 0-1 0-2 12-7 25-3 20 5 36 17 1 1 3 2 0 1 0 2 2 1 4 2 0 1 0 2 1 0 2 0 3 3 5 5 0 2 2 3 2 3 3 6 1 0 2 0 0 2 0 3 1 0 2 0 0 2 0 3 1 0 2 0 11 18 8 38-1 5-6 8-1 0-2 0 0 1 0 2-1 0-2 0 0 1-1 2-1 2-3 5-1 0-2 0 0 1 0 2-1 0-2 0 0 2-1 3-2 3-5 5-1 0-2 0 0 1 0 2-1 0-2 0 0 1-1 2-2 4-5 7-1 0-2 0-1 3-2 5 1 1 2 1 9 4 17 12 2 1 5 2 0 1 0 2 5 1 9 2 0-1 0-2 2-2 4-4 1 0 2 0 1-1 1-2 1-3 4-6 1 0 2-2 1-1 3-2 0-1 0-3 3-1 5-3 1-1 2-2t2-2 2 0q0-1 0-2 1 0 2 0 0-1 0-2 4-3 9-5 11 4 21 12 2 1 4 2 0 1 0 2 1 0 2 1 6 2 12 6 0 1 0 2 1 0 2 0 4 1 8 4 0 1 0 2 2 0 2 1 6 2 11 6 3 3 7 5 6 3 11 8 2 1 5 2 0 1 0 2a8477 8477 0 0 1 11 5q6 5 14 9 5 3 9 5 0 1 0 2a30392 30392 0 0 0 10 5q3 3 8 5 0 1 0 2 2 0 3 1 5 2 9 6 3 2 6 3 0 1 0 2 1 0 2 0 3 2 6 3 1 1 2 1 2 1 2 2a1475 1475 0 0 1 61 39q4 2 7 4 0 1 0 2 3 1 6 2 0 1 0 2 2 0 2 1 4 1 4 3 2 5 0 10-1 0-2 0 0 1-1 2-3 4-7 9-5 4-8 9-3 3-7 6 0 1-1 2-1 0-2 0 0 1 0 2-1 0-2 0 0 1 0 2-1 0-2 0 0 1 0 2-2 2-4 4-1 0-2 0 0 1 0 2-1 0-2 0 0 1 0 2-1 0-2 0a2003 2003 0 0 1-6 8q-1 2-2 2-2 3-4 2 0 1 0 2-1 0-2 0 2-5 6-8 2-1 3-3a3639 3639 0 0 0 9-9q2-2 3-4 1 0 2 0 0-1 1-2 2-3 5-6 2-1 3-3 3-2 5-5c11-10 11-10 17-23q1-3-2-5-2-1-5-2-2-1-5-3-1-1-3-2-1-1-3-2-4-2-8-5-1-1-2-2a1590 1590 0 0 0-49-31q-2-2-4-2 0-1-1-1a1457 1457 0 0 0-37-24q-14-9-29-19-10-6-21-13-10-7-21-14a1825 1825 0 0 1-41-26q-1-1-3-2c-6-4-6-4-13-5q-4 3-8 7a2429 2429 0 0 1-18 18q-3 2-4 4-1 1-2 2-3 3-5 6-7-3-12-7-2 0-2-1a1791 1791 0 0 1-11-7q-3-2-4-3t-2-2q-2-1-5-3 0-2 2-4t3-3q3-2 5-5 2-1 3-3 2-2 3-4 1 0 2 0 0-1 0-2 1 0 2 0 0-1 1-2 2-4 7-8c9-8 9-8 13-19q-3-24-20-43-1-1-3-3a84 84 0 0 0-56-28q-8-1-13 4a2138 2138 0 0 0-12 13q-5 5-10 10-2 2-3 4-1 0-2 0 0 1-1 2-2 4-6 7-6 6-12 13-13-6-25-15-3-3-8-6 1-6 7-10 5-4 8-9 7-7 15-15 2-1 3-3"/>
<path fill="#2b5967" d="M591 49q5 2 8 5 0 1 0 2 1 0 2 1 7 1 11 6 5 3 9 6 7 3 14 8 3 3 6 4 7 4 13 8 6 6 14 10 0 0 2 1 3 2 7 4 0 1 0 2 1 0 3 1 6 1 10 6 2 0 2 1a357 357 0 0 1 21 13q0 1 0 2 2 0 2 1 7 2 13 7c13 9 13 9 27 17q0 1 0 2 2 1 3 1 3 1 5 2 0 1 0 2 2 1 3 1 3 1 5 2 0 1 0 2 2 1 4 1 0 1 0 2a3642 3642 0 0 1 12 6c4 3 4 3 8 5q0 1 0 2 1 0 2 1 7 3 15 8 0 1 0 2 1 0 2 0 4 2 7 5 1 1 3 2 5 3 5 5 0 3 0 5-1-1-2-3-6-7-16-12-3-3-6-4-1-1-2-2a1391 1391 0 0 1-43-28 593 593 0 0 1-43-27q-17-11-35-23a1410 1410 0 0 0-43-28q-11-8-23-14-11-7-20-14-5-4-12-4-4 3-8 7-2 2-2 2a696 696 0 0 0-23 24q-5 6-10 10-2 1-4 4 0 0-2 2-1 1-2 3-1 0-2 0 0 1 0 2-1 0-2 0 0 1-1 2-2 3-5 6 0 1-2 2-1 1-2 2a215 215 0 0 0-19 20q-3 3-4 7c2 7 10 10 15 14q1 0 3 2 3 2 6 3 1 1 3 2 8 5 14 9 2 1 3 2 21 14 42 27a12069 12069 0 0 0 158 99q6-4 10-9 0-1 1-2 1 0 2 0 1-1 1-2 1-3 4-6 1-1 3-2 0 0 2-2a217 217 0 0 0 18-19q7 3 14 8a26771 26771 0 0 0 20 14q-4 6-9 12-1 1-3 2-1 2-3 3-2 2-4 4 0-2 0-4 1 0 2 0 0-1 1-2 3-5 8-9 3-3 3-7-1 0-2 0 0-1 0-2-2-1-5-2 0-1 0-2-1 0-2 0-2-1-4-2 0-1 0-2-1 0-2-1-4-1-6-4-5-3-10-2 0 1-1 2-1 2-3 5-1 0-2 0 0 1 0 2-1 0-2 0 0 1 0 2-1 0-2 0 0 1-1 2-2 3-5 6-2 2-3 3 0 1-2 2-1 2-3 3-6 7-7 7-2 3-5 5-2 3-5 2-8-3-17-8 0-1 0-2-3-1-6-2 0-1 0-2-2 0-4 0 0-1 0-2-1 0-2-1-6-2-10-5 0-1 0-2-1 0-2-1-4-1-8-4-1-1-2-2-1 0-2-1 0-1 0-2-1 0-2 0-4-2-8-4-1-1-3-2-1-1-3-2-1-1-3-2-1 0-3-1-1-1-2-2-1 0-2-1 0-1 0-2-3-1-6-2 0-1 0-2-1 0-2 0-2-1-4-2 0-1 0-2-1 0-2-1-6-2-10-5 0-1 0-2-1 0-3-1-4-2-10-5-1-1-3-2-3-2-6-4 0-1 0-2-3-1-6-2 0-1 0-2-2 0-4 0 0-1 0-2-3-1-6-2 0-1 0-2-1 0-2-1-6-2-10-5 0-1 0-2-1 0-2 0-2-1-4-2 0-1 0-2-1 0-2 0-2-1-4-2 0-1 0-2-1 0-2 0-4-2-8-4 0-1 0-2-3-1-6-2 0-1 0-2-1 0-2 0-4-2-7-4-4-4-9-6 0-1 0-2-1 0-3 0 0-1 0-2-1 0-2 0-3-1-5-2 0-1 0-2-1 0-2 0-12-6-23-15-3-2-6-4t-4-4q-1-7 4-13 3-3 6-6c4-4 4-4 7-8q1 0 2 0 0-1 1-2 2-4 6-7 2-1 3-3 2-2 4-2 1-2 1-4 1 0 2 0 0-1 0-2 1-1 3-3 6-5 11-11 1-1 2-2 3-3 5-6 1 0 2 0 0-1 0-2 1 0 2 0 0-1 0-2 1 0 2 0 0-1 1-2 3-5 7-8 1 0 2 0 0-1 0-2 1 0 2 0 0-1 0-2 1 0 2 0 0-1 0-2 1 0 2 0 0-1 0-2 1 0 2 0 0-1 1-2 4-9 15-6"/>
<path fill="#1d5191" d="M985 145q1 0 1 0 0 3 0 5-3 2-6 3 1 0 2 0 1-1 2-1t2-1q12-2 23 4 10 7 13 18 2 9-1 19-5-3-9-8-12-15-29-26-1 0-2 0 1 1 2 1 0 1 0 2 1 0 2 1 11 5 18 15 2 2 5 5 2 2 2 5 1 0 2 2 1 0 2 1 0 2 0 3 2 1 4 1 0 2-1 3-1 3-1 5t-4 3q-2 1-3 1 0-1 0-2-1 0-2 0-1-3-2-6 1 0 1-1-4-3-9-4 0-1 0-2-1 0-2 0-1-2-2-4-1 0-2 0 0-1 0-2-2-1-4-2 0-1 0-2-1 0-2 0-4-2-7-5-2-1-3-2-1 0-2-1 1-3 2-6-1 0-2-1 0-1 0-2 3 0 5-1-1-3-3-5 0-3 0-5 0 0 0-1 1-1 2-3 2 0 3 0 1-1 2-2 1 1 2 1 1-1 1-3"/>
<path fill="#f3f8f8" d="M126 427q1 0 2 0 2 7 4 13 1 2 1 3 1 2 1 4 1 2 1 3 1 3 1 6 1 0 2 0 13 5 27 9-1 2-3 3-1 0-2 0-2 1-2 1-1 1-3 1-1 1-3 1-7 2-15 4-4 13-8 28-1 0-3 0 0-2 0-2-1-14-8-25-13-8-29-10 3-3 7-4 1 0 4-1 1 0 3-1 2 0 3-1c9-2 9-2 12-2q0-1 1-3 3-13 7-27"/>
<path fill="#f3f8f8" d="M418 299q1 1 2 1 1 3 1 6c2 14 2 14 10 24q9 4 21 5 2 1 4 3-13 7-28 8 0 1-1 2 0 2 0 3-1 2-1 3-1 3-2 5-2 7-3 14 0 1-1 3-1 0-2 1 0-1 0-3c-3-15-3-15-11-27q-13-7-27-9 3-3 8-3c11-2 11-2 21-7q6-11 8-24 0-3 1-5"/>
<path fill="#f4f9f9" d="M1195 220q2 1 3 3 0 2 1 4 1 1 1 3 1 2 1 4 1 1 1 4c3 9 3 9 3 11q1 0 2 0 13 5 27 9-3 3-7 4a5652 5652 0 0 0-7 2q-2 0-3 1c-9 2-9 2-12 2q-3 8-4 15 0 2-1 2 0 3-1 6 0 0-1 2 0 2 0 2-1 2-3 3 0-1-1-2-1-4-2-10-1-1-1-3-1-1-1-3a4973 4973 0 0 1-4-11q-3-1-6-2-7-2-15-5-3 0-4-1-2-1-3-1 3-3 8-4 2 0 3-1 4 0 8-2c6-1 6-1 10-5q2-3 2-6a400 400 0 0 1 3-11q1-1 1-3 1-4 2-7"/>
<path fill="#2c5967" d="M1001 345q1 0 2 0 0 1 0 2a10500 10500 0 0 0 10 5q1 0 2 2 2 0 3 1 2 2 3 2a5043 5043 0 0 1 36 24q2 1 2 1 2 1 3 2 1 0 2 1 0 1 1 1 0 1 0 2-2 2-5 4 0 1-1 2-1 0-2 0 0 1-1 2-2 3-5 6-1 2-2 2-1 2-3 3-2 2-4 4t-2 2q-2 2-3 4-1 0-2 0 0 1-1 2-2 3-5 6-1 2-2 2-1 2-3 3a2260 2260 0 0 0-6 6q-2 2-3 4-1 0-2 0 0 1-1 2-1 2-4 5-1 1-2 2a1839 1839 0 0 0-5 5q-1 1-2 2t-2 3q-5-3-11-6a636 636 0 0 0-53-35q2-4 5-7 2-2 2-2 2-2 2-2c6-6 6-6 11-11q1-2 2-3 1 0 2 0 0-1 0-2 1 0 2 0 0-1 1-2 2-4 7-8 4-4 9-10 8-8 14-14 3-3 6-6 1 0 2-2 2-2 3-4m-1 5a4634 4634 0 0 1-9 9q0 1 0 2-1 0-2 0 0 1 0 2-1 0-2 0 0 1 0 2-1 0-2 0 0 1 0 2-1 0-2 0 0 1 0 2-1 0-2 0 0 1 0 2-1 0-2 0-2 2-4 4 0 1 0 2-1 0-2 0-2 2-3 4-4 4-10 10-1 1-1 3-1 0-3 1c-4 3-4 3-5 8q-1 0-2 1-2 1-3 3t-3 3q-4 3-7 7c10 8 10 8 21 12q0 1 0 2 2 1 4 3 0 0 2 1 3 2 6 2 0 1 0 2 2 2 5 3 8 5 15 10 4 3 8 3 1-1 1-2 1-2 4-3 2-1 3-3 0-1 0-2 1 0 2 0 0-1 0-2 1 0 2 0 0-1 0-2 1 0 2 0 0-1 0-2 1 0 2 0 0-1 0-2 1 0 2 0 0-1 0-2 1 0 2 0 0-1 0-2 1 0 2 0 0-1 0-2 1 0 2 0 0-1 0-2 1 0 2 0 0-1 0-2 1 0 2 0 1-2 4-5 3-4 6-7t5-6q2-1 4-2 0-1 0-2 1 0 2 0 2-2 4-4 1 0 1-2 2-2 3-4 2-3 5-4 0-1 0-2 1 0 2 0 0-2-1-4-2-1-5-2 0-1 0-2-2-1-3-2a383 383 0 0 1-43-27q-1-1-2-1-4-4-7-1"/>
<path fill="#f3f8f9" d="M1009 155q10 7 13 18 2 9-1 19-5-3-9-8a127 127 0 0 0-32-28q0-1 0-2 15-7 29 1"/>
<path fill="#2b5967" d="M1158 447q5 2 9 5 2 0 2 1 2 1 3 2 2 1 3 1 4 3 7 5 1 1 2 1a2938 2938 0 0 1 18 12q1 0 3 1 3 3 6 4 0 1 2 2a5017 5017 0 0 0 9 7q-12 14-26 27-3 3-5 6-1 0-2 0 0 1-1 2-2 4-6 7 0 1-1 2a1290 1290 0 0 1-11 10q-1 1-2 2-4 5-10 10 0 1-1 2 0 1-1 2-2 1-4 1-3-1-7-4 0 0-2-2-1 0-3-1-3-2-6-5-2 0-4-2-8-5-15-10a3706 3706 0 0 1-25-16q6-9 15-17 5-4 9-9 5-7 12-13 5-5 8-9 8-8 14-14a8403 8403 0 0 1 10-10m-2 5q-2 2-3 3-2 1-2 2-2 2-2 4-1 0-2 0 0 1 0 2-1 0-2 0 0 1 0 2-2 1-4 2 0 1 0 2-1 0-2 0 0 1 0 2-2 1-4 2 0 1 0 2-1 0-2 0 0 1 0 2-1 0-2 0 0 1 0 2-1 0-2 0 0 1 0 2-1 0-2 0 0 1 0 2-1 0-2 0-2 1-3 3-1 1-2 3-1 1-2 2-2 3-4 5-1 0-2 2-4 4-10 10-1 0-2 2-1 1-3 3t-2 4q-1 0-2 1a485 485 0 0 0 27 18q11 7 23 15 2 1 3 1 1 1 2 2 2 1 3 3 2 0 3 0 2-2 4-4 3-6 5-6 0-1 0-2 1 0 2 0 0-1 0-2 1 0 2 0 0-1 0-2 1 0 2 0 0-1 0-2 1 0 2 0 0-1 0-2 1 0 2 0 0-1 0-2 1 0 2 0 0-1 0-2 1 0 2 0 0-1 0-2 1 0 2 0 2-2 3-4 2 0 2-2 3-2 4-5 3-3 6-6 4-3 7-7 2-2 4-4 3-2 2-4 2-1 4-2 0-1 0-2 1 0 2-1 3-1 4-5 1 0 2 0 0-1 0-2c-4-3-4-3-9-4q-2-1-4-3-5-5-10-8-2-1-2-1a728 728 0 0 0-8-5q-3-4-7-3 0-1 0-2-2-1-4-2-1-1-2-1-2-1-4-1 0-1 0-2a784 784 0 0 0-7-4q-4-3-6 1"/>
<path fill="#2a5867" d="M697 383q3 2 6 2 0 1 0 2 2 1 4 1 9 3 16 9a624 624 0 0 0 21 14q1 0 3 2t3 5q-1 4-4 8-6 6-10 15 0 0-1 2-1 0-2 0-1 3-2 6-1 0-2 0 0 1-1 2-2 7-6 11-6 7-8 16 1 1 3 2 0 1 0 2 7 0 12-5 4-3 7-8 3-3 6-5 2-2 4-4 1-1 3-1 0-1 0-2 1 0 2 0 0-1 0-2 1 0 2 0 0-1 0-2 1 0 2 0 0-1 0-2 1 0 2 0 0-1 0-2 2-2 4-4 1 0 2-1 2-2 5-3 1-2 2-4 1 0 2 0-6 11-17 18-3 3-6 6-4 5-10 9-5 5-10 10-2 3-4 2 0 1 0 2-3 4-6 3-1-1-2-2-3-4-8-6 3-6 6-12 1-1 2-2a1508 1508 0 0 1 17-27q1-1 2-3 2-3 5-8 1 0 1-2 1-1 2-2 1-2 1-2 1-2 1-5-1-1-3-3-2 0-2-1-2-1-3-2t-2-2c-21-14-49-31-75-29q-6 1-10 5-4 13 0 25 4 9 9 19 1 2 2 3 5 10 12 18 3 5 6 9-2-1-4-2-1-1-1-3-1 0-2 0-2-2-3-4-3-5-7-10-1-2-1-4-1 0-2 0-1-3-2-6-1 0-2 0c-6-13-14-29-9-43 12-17 34-9 50-3"/>
<path fill="#2a5867" d="M1081 396q4 2 8 5 10 7 21 14 2 1 4 2 6 5 14 9 3 2 5 3a1683 1683 0 0 1 11 9q-2 1-3 3-1 1-4 4-1 0-1 1-6 5-9 10a219 219 0 0 1-17 17q-1 1-2 2-2 2-3 4-1 0-2 0 0 1 0 2-1 0-2 0 0 1-1 2-2 4-7 8-3 3-6 7-1 0-2 0a1277 1277 0 0 0-5 8q-1 1-2 2-2 1-4 1-4-2-7-4-1-2-3-2-2-1-2-2-5-2-9-5-1-1-2-2a1046 1046 0 0 0-39-25q1-5 6-9 5-5 9-9 4-5 10-11 2-2 4-5 1 0 2 0 0-1 1-2 2-3 5-6 2-1 3-3 2-1 3-3a277 277 0 0 0 21-22q0-1 1-2 2-1 4-1m-5 5q-1 2-2 3t-2 2-1 3q-1 0-2 0 0 1 0 2-1 0-2 0 0 1 0 2-1 0-2 0 0 1 0 2-2 1-4 2 0 1 0 2-1 0-2 0 0 1 0 2-1 0-2 0 0 1 0 2-1 0-2 0-1 1-1 2-3 4-7 7a260 260 0 0 0-9 10q-2 2-2 2-3 3-5 5-1 1-2 2-2 2-2 2-2 2-2 4-1 0-2 0-3 3-4 7-2 1-4 2 0 1 0 2 1 0 2 0 0 1 0 2 3 2 7 3 0 1 0 2 2 0 5 1 0 1 0 2 3 1 6 2 0 1 0 2 1 0 2 0 1 1 2 1 0 1 1 2 2 1 5 3 1 1 3 2 1 1 3 2a2640 2640 0 0 1 11 7q1 1 3 2t4 1q0 1 0 2 2 0 4 1 0 1 0 2 3 0 5-2 0 0 2-2 0 0 1-2 3-3 4-6 1 0 2 0 0-1 0-2 1 0 2 0 2-3 5-5 4-7 6-7 0-1 0-2 1 0 2 0 0-1 0-2 1 0 2-1 2-1 3-3t3-3q3-1 5-4 1-1 2-2t2-2 2-2q4-3 4-7 1 0 2 0 2-2 3-3 3-5 5-5 0-1 0-2 1 0 2 0 0-1 0-2 1 0 2 0 1-2 2-4-1 0-2 0 0-1 0-2-2-1-3-2-10-6-21-13-2-1-4-1 0-1 0-2-2-1-4-2-1-1-2-1-2-1-5-1 0-1-1-3-2-1-4-1 0-1 0-2-2-1-3-2-4-1-7-4-4-5-9 0"/>
<path fill="#2a5866" d="M663 120q7 3 13 7 2 1 3 1a437 437 0 0 1 25 16q0 1 0 2 1 0 2 1 6 2 10 6 0 0 2 1 2 2 4 3 0 1 0 2-1 0-3 0 0-1 0-2-1 0-3 0 0-1 0-2-1 0-3 0 0-1 0-2-1 0-2-1-6-2-10-5 0-1 0-2-1 0-2-1a77 77 0 0 1-13-7q-7-4-14-10-2-1-5-2 0-1 0-2-2 0-4 0 0 1 0 2-1 0-2 0 0 1 0 2-1 0-2 0 0 1 0 2-1 0-2 0 0 1 0 2-1 0-2 0 0 1 0 2-1 0-2 0 0 1-1 2-2 3-5 6-5 5-8 9-2 4-8 8-1 1-2 3-1 0-2 0 0 1 0 2-2 2-4 3-4 5-8 9-1 0-2 0 0 1 0 2-1 0-2 0 0 1 0 2-1 0-2 0 0 1-1 2-1 2-3 5-1 0-2 0 0 1 0 2-2 2-4 4a2354 2354 0 0 1 12 6q0 1 0 2a5955 5955 0 0 1 8 3q0 1 0 2 2 0 3 1 6 2 10 6 8 6 16 11 2 1 3 3 6 3 11 3 0-2 1-4 1 0 2 0 0-1 0-2 1 0 2 0 0-1 0-2 1 0 2 0 0-1 0-2 1 0 2 0 0-1 0-2 1 0 2 0 0-1 0-2 1 0 2 0 0-1 0-2 1 0 2 0 1-1 1-2 1-3 4-6t6-6q5-6 11-11 3-4 6-7 3-2 5-4 0-1 1-2 1 0 2 0 0-1 1-2 3-4 8-9 1 0 1-5 2 1 4 2-2 4-5 8-1 0-3 2 0 0-2 2-6 6-11 12-8 8-17 17-6 6-12 13-5 5-10 11-3 3-6 7-6-2-10-5-2 0-2-2-1 0-3-1-1-2-3-2a829 829 0 0 1-30-20q-1 0-3-1-3-3-6-4-1-1-3-2a4221 4221 0 0 0-4-3q0-4 1-6 2-1 2-2 2-1 3-2 0-1 2-2 8-7 14-15 6-6 13-13 6-6 11-12 5-4 9-9 6-6 11-12"/>
<path fill="#2a5867" d="M741 171q6 0 11 5 1 0 2 1 1 2 4 2 5 4 9 7 2 0 2 1a630 630 0 0 0 36 23q-3 4-6 7-1 2-2 2-2 1-2 3-2 1-2 2-2 2-4 2 0 1 0 2-1 0-2 0 0 1-1 2-3 5-7 8c-6 5-6 5-10 11q-6 6-12 12t-10 11q-5 6-10 10-5-2-11-5-1-1-3-3-1-1-3-2-3-1-7-4-2-1-3-2-3-2-6-4-1-1-3-2-2 0-3-2-1 0-2-1 0-1 0-2 2 0 3 0 0 1 0 2a5955 5955 0 0 1 8 3q0 1 0 2 1 0 2 0 3 1 6 4 5 3 9 5 4 3 9 6 0 1 0 2 4-1 7-2 1-2 2-4t4-4q1-2 1-2 2-2 4-2 0-1 0-2 1 0 2 0 0-2 1-4 2 0 3 0 0-1 0-2 1 0 2 0 0-1 1-2 1-3 5-4 0-1 0-2 1 0 2 0 0-1 1-2 2-3 5-6 5-5 9-11 0-1 1-1t2 0q0-1 0-2 2-2 4-4 1 0 2 0 0-1 0-2 1 0 2 0 0-1 0-2 1 0 2 0 0-1 0-2 1 0 2 0 0-1 0-2 1 0 2 0 0-1 0-2 1 0 2 0 0-2 0-4-3-1-6-2 0-1 0-2-2 0-4 0 0-1 0-2-1 0-2 0-4-2-8-4a4969 4969 0 0 1-6-4q0-1 0-2-3-1-6-2 0-1 0-2-3-1-6-2 0-1 0-2a11104 11104 0 0 0-9-4q-3-3-7-4 0-1 0-2-2-1-4-1-2 1-3 3-2 1-2 2a2488 2488 0 0 0-6 6q0 0-2 2-1 1-3 1 0 1-1 2-1 3-5 4a219 219 0 0 0-5 7q-1 2-1 2-5 6-11 11a2816 2816 0 0 0-10 9c-8 9-8 9-15 18q0 1 0 2 2 1 4 1 0 1 0 2 1 0 2 1 6 2 10 6 0 1 0 2-7-3-13-7-1 0-2-1-2-2-5-4 0-5 4-8 1 0 2 0 0-1 1-2 2-4 6-8a2827 2827 0 0 1 15-14q3-3 5-6 1 0 2 0 0-1 1-2 1-3 6-7 0-1 2-2t3-3q3-3 6-6 1-1 2-2 2-2 3-4 1 0 2 0 0-1 0-2 1 0 2 0 0-1 1-2 1-2 3-4"/>
<path fill="#226038" d="M1055 934q7 2 14 5 0 0 2 1a409 409 0 0 1 26 13q0 1 0 2-4 0-8-1 0 1-1 2 0-1 0-3-2 0-4 1 0 2-1 3-2 0-5-1 0 3 0 5-1 0-3-1 0-3-1-6-1 2-3 3 1 1 2 2 1 2 1 3 1 0 2 0 0 1 0 2-1 1-2 1-3 2-4 6-1 2-3 3 0 1-1 2 1 0 2 0 0 3-1 5-3-5-4-11 0-2-1-4 0-1 0-2-1-4-3-9 0-1 0-4-2-3-2-6 0-2-1-3 0-1-1-3 0-2 0-5"/>
<path fill="#2b5968" d="M749 351q2 1 3 1 25 9 45 23 0 1 0 2 1 0 2 0 0 1 0 2 1 0 2 1c8 4 14 14 20 21q1 2 2 2a122 122 0 0 1 21 103q0 0-1 0 0-1 0-2a978 978 0 0 0 1-13q3-37-13-69 0-1-1-3-9-16-23-30-1-1-2-2c-21-23-55-36-86-37q-21-1-41 6-2 2-5 0c19-13 55-13 76-5"/>
<path fill="#2b5867" d="M621 93q6 2 11 5 2 2 3 3t3 2q1 1 3 2 4 2 8 5-1 4-4 7-1 0-2 0 0 1-1 2-1 2-4 5-1 1-2 2 0 1-2 2-6 6-12 13-5 5-10 10-3 3-5 6-1 0-2 0 0 1-1 2-2 3-5 6-2 2-3 3a4034 4034 0 0 0-8 8q-1 1-2 2-2 2-3 4-4-1-8-3-1-1-2-2-2 0-2-1a591398 591398 0 0 1-45-29q-3-2-7-4 2-4 5-7 1-2 2-2a2539 2539 0 0 1 6-6q0 0 2-2 1-1 2-3 1 0 2 0 1-1 1-2 1-3 4-6 2 0 2-2 2 0 3-2 0 0 2-2 0-1 2-2 1 0 1-2 2-1 4-1 1 2-2 5-3 2-5 3-3 2-4 5-2 3-5 6-1 0-2 0 0 1 0 2-1 0-2 0 0 1-1 2-1 3-5 4 0 1 0 2-1 0-2 0 0 1 0 2-1 0-2 0 0 1 0 2-1 0-2 0-1 3-2 6 1 0 2 0 0 1 0 2 1 0 3 1 5 2 9 5 1 1 4 1 0 1 2 2 0 1 0 2 1 0 2 1 6 2 10 5 0 1 0 2a3837 3837 0 0 0 12 6q0 0 2 1 2 0 4 2 0 1 0 2 2 1 4 1 0 1 0 2 3 1 5 1 0-1 0-2 1 0 2 0 0-1 0-2 2-2 4-3 3-3 7-7 2-3 6-6 9-7 16-18 1 0 2-2 1 0 2 0 0-1 0-2 1 0 2 0 0-1 0-2 1 0 2 0 0-1 0-2 1 0 2 0 0-1 0-2 1 0 2 0 0-1 0-2 1 0 2 0 0-1 0-2 1 0 2 0 0-1 0-2 1 0 2 0 0-1 1-2 2-4 6-8 1 0 2 0 0-1 0-2 1 0 2 0-4-5-11-8 0-1 0-2-1 0-2-1-4-1-8-4-1-1-2-2-1 0-2-1 0-1 0-2"/>
<path fill="#2c5a68" d="M674 359c33 2 66 25 91 45q2 1 3 2 23 19 42 42 1 1 2 2 18 22 28 51-1 0-3 0 0-1-1-3-4-10-9-21 0-1 0-2-1 0-2 0-2-2-3-5-1-1-2-3t-1-4q-1 0-2 0c-4-5-4-5-4-8q-1 0-2 0 0-1 0-3-1 0-3-1-2-3-5-6 0 0-1-2-4-4-3-6-1 0-2-1-3-1-4-5-1 0-2 0 0-1 0-2-1 0-2 0 0-1 0-2-1 0-2-1-4-2-7-5 0-1 0-2-1 0-2-1-4-2-7-5 0-1 0-2-1 0-3-1-4-1-7-5 0-1 0-2-2-1-5-2 0-1 0-2-2-1-5-2 0-1 0-2-1 0-2-1-4-2-8-4a225 225 0 0 0-21-12q-1-1-4-2a2492 2492 0 0 0-9-5q-9-4-20-7-2-1-4-1-4-2-9-3 0 0 0-1"/>
<path fill="#2a5867" d="M955 163q0 1 0 2-1 0-2 0c-16-1-27 0-39 12q-9 9-16 18 1 0 2 0a119 119 0 0 1 81 68q3 7 2 13-2 0-3-4 0-1-1-3 0-3-1-4-1-3-1-5-1 0-3-1 0-2 1-4-1 0-2 0 0-2 0-4-1 0-2 0 0-2 0-4-1 0-2 0c-4-5-4-5-4-8q-1 0-2 0-4-3-3-6-1 0-2 0 0-1 0-2-1 0-2-1-4-2-7-5-3-4-8-7-1-1-2-1 0-1 0-2-2 0-2-1-3-1-6-3 0-1 0-2-1 0-2 0-4-1-8-4-12-4-25-7 0-2-1-4 1 0 2 0 0-1 0-2 1-1 1-2 2 0 3-1 1-2 1-4 1 0 2 0 0-1 0-2 2-2 4-4 1 0 2 0 0-1 1-2 1-3 5-4 0-1 0-2 1 0 2 0 0-1 0-2 2-1 5-3 2-1 3-2 15-6 29-1"/>
<path fill="#2b5968" d="M794 318q1 2 1 3 2 0 3 0c12 0 24 7 34 13q2 1 3 2 1 0 2 1 0 1 0 2 1 0 2 0 0 1 0 2 1 0 2 0 0 1 0 2 1 0 2 0 0 1 0 2 1 0 2 0 0 1 0 2 1 0 2 0 0 1 0 2 1 0 2 0 4 5 7 10 1 2 2 2 10 16 9 35-2 7-8 10-4 1-8 1-2 0-3 0-5 0-7-4-2-3-4-6-1-2-2-3-3-3-4-7-1 0-2 0-1-1-2-3 0-1 1-3a718 718 0 0 1 19 24q4 0 7-1 1 0 2 0 4-2 7-6c4-11-1-23-7-33q-5-10-14-18-1-1-3-3a68 68 0 0 0-46-20q-1 0-3 0-6 0-11 2-2 9-3 17-3-5-2-11 1-5 6-9 4-2 9-3 3 1 5-2"/>
<path fill="#205291" d="M776 344q7 2 12 5 1 0 2 1 12 7 23 16 1 1 2 1 2 3 4 4 0 1 0 2 1 0 2 0 7 6 8 14 1 0 2 0a135 135 0 0 1 11 17q-1 0-3 1 0-1 0-3-1-3-3-4-4-1-10 0 2-1 4-3 0 0-1-1-2 1-5 1 0 1 1 2 1 2-2 5 1 0 2 0 3 1 5 2c0 4 0 4 1 8q2 1 3 1 0 1 0 2 3 0 6 1 0 1-1 3-2 1-4 1-1 0-2 1-1-1-2-3-6-12-15-21-1-2-1-5 2 0 5-1 1-1 1-3 2 0 4 0 1-2 1-4-1 0-2 0 0-1 0-2-1 0-2 0 0 2-1 3-3-5-1-10-1 0-3 0-2-2-4-4 0-1 0-2-1 0-2 0-2-2-5-5a389 389 0 0 0-16-11q-2-1-3-2-2 0-2-1-4-3-9-5 0 0 0-1"/>
<path fill="#2c5967" d="M942 445q6 2 10 5 1 1 3 2 1 1 3 2 3 2 6 4 2 1 3 2 6 4 12 8 0 0 2 1 9 7 20 13c25 16 25 16 37 23q18 12 36 24a1942 1942 0 0 1 29 18q1 1 2 2 2 0 5 2 0 1 2 2 0 1 0 2-5-2-11-5-1-1-3-2-1 0-2-1 0-1 0-2-1 0-2 0-2-1-5-2 0-1 0-2a1904 1904 0 0 0-11-6q-3-2-7-4 0-1 0-2-3-1-6-2 0-1 0-2-1 0-3-1-3-1-7-4-3-1-6-3 0-1 0-2-3-1-6-2 0-1 0-2-1 0-2-1-5-2-11-6-12-9-26-16-4-2-7-5-6-5-12-8a477 477 0 0 1-36-23q-1 0-2-1 0-1 0-2-1 0-3 0 0-1 0-2-1 0-3-1 1 0 1-1"/>
<path fill="#205291" d="M722 499q6 3 12 7 10 7 22 13 1 1 2 1 19 11 43 15 2 0 4 2c-21 2-42-11-60-20q0-1 0-2-1 0-3 0-5-1-9-4 0-1 0-2-1 0-2 0 0 1-1 2-2-1-5-2 0 1-1 2-1 0-3 0 0 1-1 2-2 1-5 2 1 2 1 3-2 2-4 4 1 2 2 3-2 1-4 1 0-2 0-5-2 0-4-1 0-2-1-5 1 0 2-1 9-2 14-12 1-2 1-3"/>
<path fill="#2b5967" d="M912 353q5 1 9 4 6 5 12 8 1 1 2 2 3 2 5 3 2 0 2 1 2 1 3 2t1 1q0 5-1 6-1 0-2 0 0 1-1 2-2 3-5 6-1 1-2 2-1 2-3 3a2260 2260 0 0 0-6 6q-2 2-3 4-1 0-2 0 0 1 0 2-1 0-2 0a5401 5401 0 0 1-6 7q-3 2-3 6 0 3 0 6 1 0 2 1 4 3 10 6 0 0 2 1a6170 6170 0 0 1 9 6q1 1 4 2 0 1 2 2 1 1 2 1 0 1 0 2-7-2-14-7-2-2-4-3 0-1 0-2-1 0-3 0 0-1 0-2-1 0-3 0 0-1 0-2-1 0-3-1-5-1-7-7 0-4 2-8 1 0 2 0 1-2 1-4 1 0 2 0 0-1 1-2 1-4 6-7 1 0 2 0 0-1 1-2 2-3 5-6a65 65 0 0 0 12-13q1 0 2 0 0-2 0-4-2-2-5-3-2-1-5-3 0-1 0-2-1 0-2 0-6-2-10-6-4-3-8-3-3 2-5 5-1 0-2 0 0 1 0 2-2 3-5 5-1 2-2 3t-2 2q-1 0-2 0 0 1 0 2-1 0-2 0 0 1 0 2-1 0-2 0 0 1 0 2-1 0-2 0 0 2-1 3-1 0-2 0 3-6 7-10 0-1 2-3 1 0 2-2 1 0 2 0 0-1 1-2 2-4 6-7 3-3 6-7"/>
<path fill="#27643d" d="M997 802q2 1 4 1 1 1 3 1 3 1 4 4 0 1-1 2 2-1 4-2 1 3 1 6 1 0 2 0 0 1 0 2 1 0 2 0 2 2 3 3 2 1 3 1 0 2-1 4 1 0 2 0 0 1 0 2 1 0 2 0 3 3 5 6 2-1 4-2 1 6 1 6 3 4 6 7t4 8q1 0 2 0 0 1 0 2 1 0 2 0 0 1 0 2 1 0 2 0 0 1 0 2 1 0 2 0 0 1 0 2 1 0 2 0 0 2-1 3a16799 16799 0 0 1-48-48q-1-1-2-1-4-5-3-6-1 0-2 0 0-1 0-2-1 0-2 0 0-1 0-3"/>
<path fill="#2d5a69" d="M957 164a48 48 0 0 1 14 7q6 3 11 8 2 1 5 2 2 2 4 4 0 1 0 2 2 1 4 1 0 2 0 3 1 0 2 0 0 1 0 2 1 0 2 0 1 3 2 6 1 0 2 0a54 54 0 0 1 5 8q1 1 2 3t2 3q7 13 3 28-1 6-4 10-1 0-2 0 0 1 0 2-1 0-2 0 0 1-1 2-1 2-3 5-1 0-2 0 0 1-1 2-1 3-4 6-1 0-2 2-1 1-3 1 0 2 0 3-2 2-5 4-1 0-2-1 7-10 16-18 2-2 3-4 1 0 2 0 0-1 1-2 2-3 4-7 6-12 2-24c-8-22-26-40-46-51q-5-3-10-4 1-1 1-3"/>
<path fill="#2b5967" d="M796 304c21-2 39 8 54 21q2 2 5 4 0 1 0 2 1 0 2 0 4 3 7 8 2 2 2 3c10 11 19 26 18 41q-1 0-2 0 0-1 0-2-4-17-13-32-3-3-4-6-1 0-2 0-2-2-3-4-5-4-9-8-2-2-2-2-3-3-7-6-2 0-3-2 0-1 0-2a19369 19369 0 0 1-9-4q-14-8-31-9-1 0-2 0 0-1-1-2"/>
<path fill="#2c5969" d="M1010 153q4 3 7 6 0 1 0 2 1 0 2 0a293 293 0 0 1 3 6q3 8 2 15 0 2 0 4 1 3-2 7-5-1-9-5-1 0-2-2-1-1-2-2t-3-3-2-2-2-2-1-3q-1 0-3-1 0-1 0-2-1 0-2-1-3-2-7-5-3-2-6-4 0-1 0-2-1 0-3-1 2 0 3-1 3 2 6 4 1 1 2 2 13 11 25 24 2 3 5 5 3-16-5-30-6-8-17-10-10 0-19 2 0 1-1 2 0-2 1-4 15-8 30 1"/>
<path fill="#2c5a68" d="M774 437q1 1 1 2 1 1 2 1 3 2 6 5 0 1 0 2 1 0 2 0 0 1 0 2 1 0 2 0 0 1 0 2 1 0 2 0 0 1 0 2 1 0 2 0 3 3 5 6 1 2 2 2 4 6 3 7 1 0 2 0a151 151 0 0 1 13 23q11 18 6 37-2 6-8 8-3 0-5 0 0-1 0-2 2 0 3-1 6-3 8-8c4-16-5-32-13-45q-14-21-32-39-1 0-1-4"/>
<path fill="#236139" d="M253 833q1 0 2 0-2 8-9 12-3 3-4 4-2 2-2 2-4 5-8 8-2 3-5 5 0-3 0-6 1 0 2 0 0-2-1-5 2-1 3-2 0-2-1-5c6-2 6-2 8-2q1 1 1 1 1-2 1-5 3 0 5 0 1-1 1-2 2-2 3-4 2 1 4 1 0-1 0-2"/>
<path fill="#24623a" d="M304 773q1 2 1 3 2 0 4 0 0 2 0 3-1 0-2 0 0 1-1 2-3 5-7 8-6 6-11 12-4 4-9 8 0-3 2-6-1-2-3-5 1 0 2 0 0-1 0-2 2 0 3-1 1-2 2-4 1 2 2 4 0-1 0-2 2-1 3-2t1-3q3-1 5-2 0-1 0-2 2 0 3 0 0-1-1-3 3 0 5-1 1-3 1-7"/>
<path fill="#2e5b69" d="M1189 547q1 0 2 0-4 9-12 15-1 0-2 0 0 2 0 3-1 0-2 0 0 1 0 2-1 0-2 0 0 1 0 2-1 0-2 0 0 1 0 2-1 0-2 0 0 1 0 2-2 2-4 4-1 0-2 0 0 1 0 2-1 0-2 0 0 1 0 2a208 208 0 0 1-7 2q-3 0-6-2 0-1 0-2-1 0-2-1-4-1-7-3 0-1 0-2-1 0-2-1-6-2-10-5 0-1 0-2-1 0-2-1-4-1-8-4-1-1-2-2t-2-1 0-2q7 3 12 7a4213 4213 0 0 0 18 12q1 1 2 2 7 4 13 3 5-2 6-6 1 0 2 0 0-1 1-2 2-4 6-7 0-1 2-2t3-3q3-3 6-6 0 0 2-2t3-4"/>
<path fill="#29653d" d="M388 899q4 2 7 6 3 3 6 5 0 1 0 2 1 0 2 1 4 2 7 6 1 1 3 3 1 1 2 2-2 0-3 1 0-1 0-2-2-1-5-2 0-1 0-2-1 0-2 0 0-1 0-2-1 0-2 0-4 0-7-2-2 0-3 0 0-4 1-7-2 0-3 1 0-2 0-3-1 0-2 0 0 1 0 2-4 1-6 0-3-1-6 2-1 2-2 3-2 1-3 3-1 1-2 2-1-1-2-1a1133 1133 0 0 1 11-12q1-1 3-2 0-2 2-2 2-2 4-2"/>
<path fill="#2d5a68" d="M283 182q-2 1-4 1 0 1 0 2a4032 4032 0 0 1-36 10q0 2 0 3a180 180 0 0 1-9 29q0 2-1 3 0 1 0 2-1 2-3 5-1-5 1-10a1859 1859 0 0 0 6-20q1-4 2-7 0-4 3-7 7-3 14-5a688 688 0 0 0 20-6q4-1 7 0"/>
<path fill="#2b5968" d="M174 182a93 93 0 0 1 26 6q3 1 6 2t5 2q2-1 5 2 3 5 4 11a2602 2602 0 0 0 4 16c3 10 3 10 3 15q-2-1-3-3a2669 2669 0 0 0-5-22q-1 0-2-1 0-2-1-5c-1-6-1-6-5-10q-3-2-6-2-2 0-2-1a299 299 0 0 0-20-5q-5-1-9-5"/>
<path fill="#2a5868" d="M230 125q4 4 5 10 1 1 1 2 1 4 2 7 0 2 1 2a1363 1363 0 0 1 7 20 529 529 0 0 1 29 8q1 0 2 0 3 1 5 4-11-2-23-5-1-1-4-2-7-2-13-4-1-2-2-4 0-1 0-3-1-2-1-2-1-1-1-3-2-4-3-9 0-1-1-3-1-3-2-7 0 0-1-2-1-4-1-9"/>
<path fill="#285766" d="M680 459q1 0 2 0 2 3 4 5 5 6 11 12 1 1 1 3-2 1-4 2-6 4-8 11-1 8 3 15 6 6 15 8 0 1 0 2-10 0-17-8 0-1 0-2-1 0-2 0c-4-12-4-12-2-18q2-3 4-6 1 0 2 0 0-1 0-2 1-2 3-4 1-1 1-3-1 0-2-1-2-1-3-4-1 0-2 0-4-3-3-6-1 0-2 0 0-2-1-4"/>
<path fill="#2f5b69" d="M587 70q6 3 10 6 2 1 2 1a1948 1948 0 0 1 21 14q0 1 0 2-4-1-9-4 0-1 0-2-3-1-6-2 0-1 0-2-1 0-2 0-3-1-6-3-1-1-2-2t-2-1 0-2q-3-1-6-2 0 1 0 2-1 0-2 0 0 1 0 2-1 0-2 0 0 1-1 2-3 6-8 10-3 2-5 5-1 0-2 0 0 1 0 2-2 2-4 4-1 1-2 2t-2 1-2-1q1 0 1-1 1-1 2-2 2-2 2-2 2-2 3-4 1 0 2 0 0-1 0-2 1 0 2 0 1-1 1-2 1-3 4-6 2 0 2-2 2 0 3-2a1573 1573 0 0 0 6-5q1-2 2-4"/>
<path fill="#2b5968" d="M225 126q1 0 1 0-2 12-5 23-1 4-2 7-1 1-1 3-2 4-2 8a6482 6482 0 0 1-39 11q0-1 0-2 6-2 12-4 2 0 3-1 11-3 22-6 0-1 0-2a247 247 0 0 1 6-24q1-1 1-3 1-2 1-3 1-4 3-7"/>
<path fill="#2c5a68" d="M740 511q7 3 14 7 22 13 46 17 3-1 5 2c-21 2-42-11-60-20q0-1 0-2-1 0-2 0-2-1-4-3 1 0 1-1"/>
<path fill="#29643e" d="M755 973q0 4-2 8-1 0-2 0 0 1-1 2-1 3-4 5-1 1-2 2 0 1-2 2 0 0-1 2-3 2-5 4-1-2-2-4 1-2 2-4 2 0 3 0 0-1 0-2-1 0-3 0 0-1 0-3 2 0 4 0 0-2-1-4 2-1 3-2 1 1 2 3 1-1 1-2 1 1 1 1 1-1 4-4 1-1 3-1 0-1 0-2 1 0 2-1"/>
<path fill="#255680" d="M456 340q-1 1-3 1-3 1-4 2 0 2-1 4-4 0-9 0 0 1 0 2-2 0-5 0 0 1 0 2-1 1-3 1-1 0-2 1 0 2-1 4t-2 4q-1 0-2 0c1-11 1-11 4-15q5-3 11-3 1-1 2-1 3-1 6-1c6-2 6-2 9-1"/>
<path fill="#2d5a69" d="M125 426q1 0 1 0-1 10-4 19 0 2-1 3c-2 7-2 7-3 9q-2 1-4 1-1 1-3 1-1 1-3 1 0 1-2 1-9 2-16 3 0-2 5-3 2-1 4-1 2-1 2-1 8-3 15-4c2-5 2-5 1-9q1-1 1-2-1 0-2 0 1-3 3-4 4-3 4-8 1-6 2-6"/>
<path fill="#295768" d="M420 299q2 1 3 3 0 1 0 3 1 0 1 2 1 2 1 3 1 3 2 6 0 2 0 3 2 4 3 7 3 1 5 1 0 1 0 2 2 0 2 0 7 1 14 4 3 1 5 2 0 1 0 1a94 94 0 0 1-21-4c-6-2-6-2-8-5q-1-3-2-6a435 435 0 0 0-3-9q0-1 0-2-2-5-2-11"/>
<path fill="#335f6c" d="M164 468q-1 1-2 1t-3 1q-1 0-3 1-3 1-5 4-4 2-7 0-3 0-5 2-3 9-6 18 0 2-1 3-1 3-2 6 0 0-1 0 1-9 4-19 0-1 0-3c2-6 2-6 5-8q3-2 7-2a160 160 0 0 0 8-3q2 0 2 0c6-2 6-2 9-1"/>
<path fill="#2a5867" d="M776 344q7 2 12 5 1 0 2 1 12 7 23 16 1 1 2 1 2 3 4 4 0 1 0 2 1 0 2 0c5 5 5 5 5 8q-4-1-5-4 0-1-1-2-1 0-3 0-2-2-4-4 0-1 0-2-1 0-2 0-2-2-5-5a389 389 0 0 0-16-11q-2-1-3-2-2 0-2-1-4-3-9-5 0 0 0-1"/>
<path fill="#2b5867" d="M379 338q10 2 20 5 2 0 3 1 5 1 8 5 2 4 3 8a1339 1339 0 0 0 4 19q-3-3-4-7 0-1-1-4t-1-6q0-6-4-10-11-5-22-7-4-1-6-4"/>
<path fill="#295766" d="M417 298q1 8-2 17-1 2-1 3c-3 9-3 9-7 12a19433 19433 0 0 1-18 2q2-1 3-1 2 0 2-1 7-2 14-3 0-1 0-3c4-21 4-21 9-26"/>
<path fill="#2d5b69" d="M1157 259q9 2 18 5 2 0 3 0 1 1 2 1t2 0q2 1 5 3a92 92 0 0 1 3 10q1 3 2 6 0 1 1 2 1 4 1 10-3-4-4-8 0-1-1-3 0-1-1-3 0-1-1-3c-2-8-2-8-2-10q-1 0-3-1-12-2-23-6 0-1 0-2-1 0-2-1"/>
<path fill="#2a5869" d="M1197 220q3 3 4 7 0 1 1 3 1 3 2 7c1 6 1 6 5 11q4 2 8 2 3 1 6 2 2 1 3 1 4 1 7 4c-9-1-24-3-30-10q-2-5-2-9-1-3-2-7-2-5-2-11"/>
<path fill="#2c5969" d="M1193 221q1 0 1 0-1 9-3 18-1 2-1 3 0 4-4 8-7 3-13 4-1 1-3 1c-7 2-7 2-10 2q0-1 0-2a3378 3378 0 0 1 12-4q2 0 3-1c6-1 6-1 11-6q1-2 1-3 1-1 1-4 1-2 1-4 1-6 4-12"/>
<path fill="#2a5769" d="M89 466a244 244 0 0 1 23 6q4 1 7 5 1 3 2 6a381 381 0 0 0 3 8q0 1 0 2c2 7 2 7 1 10a360 360 0 0 1-5-14c-1-6-1-6-4-12q-7-4-15-5-3-1-6-2-1 0-2 0-2-1-4-4"/>
<path fill="#2a5868" d="M129 428q3 5 5 11 0 0 0 2 3 6 4 14 1 0 4 1 9 2 17 5 3 1 6 2 0 1 0 1c-22-2-22-2-29-8q-7-13-7-28"/>
<path fill="#29653d" d="M1099 955q6 2 10 3 2 1 3 2 2 1 3 1 3 2 6 3 2 1 3 2 6 3 12 5-1 2-2 3-1-1-2-1-6-3-12-6-10-4-21-10 0-1 0-2"/>
<path fill="#56895f" d="M290 955q1 6 2 11 0 2 1 3 1 6 1 14-1 0-3-1c-3-18-3-18-4-26q2-1 3-1"/>
<path fill="#2a5767" d="M1216 265q0 1 0 2-1 0-2 0-4 1-7 3-3 6-4 12-1 3-2 6 0 1 0 3-1 3-4 6 2-8 3-17 1-1 1-3c2-7 2-7 4-10q6-2 11-2"/>
<path fill="#2a683c" d="M1029 835q2 1 4 2 0 1 0 2 1 0 2 0 0 1 0 2 1 0 2 0 0 1 0 2 2 0 4-1c4 7 4 7 4 9q1 0 2 0 0 1 0 2 1 0 2 0 0 1 0 2 1 0 2 0 0 1 0 2 1 0 2 0 0 1 0 2 1 0 2 0 0 2-1 3a4095 4095 0 0 1-25-25q0-1 0-2"/>
<path fill="#2a5868" d="M722 499q6 2 11 6 1 1 4 2 1 1 2 2 0 1 0 2-5-1-11-6-2 0-3-2-1 0-2-1 0 1 0 2-3 7-9 10-4 1-7 3-1-1-2-2 1 0 2-1 9-2 14-12 1-2 1-3"/>
<path fill="#295766" d="M215 199q1 0 2 0c10 30 10 30 10 37q-2-1-3-3 0-1 0-2-1-5-4-11-1-4-1-9-1 0-2-1-1-2-1-5 0-1-1-3 0-1 0-3"/>
<path fill="#246338" d="M272 814q1 2 1 3-7 8-15 15-1 0-3-1 0-1 0-3c5-5 5-5 10-5q0-1-1-3 1-4 5-5 1 0 2 0t1-1"/>
<path fill="#578862" d="M824 964q1 1 2 1-1 1-2 1-2 1-3 3-4 3-8 2 0 1-1 2a94 94 0 0 1-9 5q-4 1-9 1 1-3 5-4 2 0 3-1 2-1 3-1 0-1 2-2a1060 1060 0 0 1 11-4q1-1 2-1 1-1 2-1 1-1 2-1"/>
<path fill="#48804e" d="M902 1029q5 10 8 20 3-2 5-4 1 5-2 6-2 1-4 1-1-1-2-1 0-2-1-4-1 0-2 0 0-2 0-4a89 89 0 0 0-2-8q-1-2-2-4 1 0 2 0 0-1 0-2"/>
<path fill="#305c6a" d="M706 347q1 1 2 2-2 0-3 1-13 2-27 6-2 2-5 0 15-9 33-9"/>
<path fill="#346c47" d="M428 939q5 2 9 5 0 2 2 3 0 0 2 2 1 0 2 2 2 2 5 5-1 1-3 1-2-2-5-4-1 0-2 0 0-1-1-3-2-2-2-2-4-5-7-9"/>
<path fill="#255463" d="M1012 219q1 0 2 0a37 37 0 0 1-3 32q-1 0-3-1 0-1 1-2 0-1 1-2 0-1 1-3 3-5 2-11 0-2 0-4 0-5-1-9"/>
<path fill="#518459" d="M311 973q0 2 0 3t-1 1q-2 2-2 5 0 0 0 2-2 0-5-1 0 1 0 2-1 0-2 0-1 2-2 4-1 0-2 0 0 2-1 3-1 0-3-1 0-1-1-3 1 0 2 0 1-1 1-2 1 1 1 2 1-1 2-3 1 0 2 0 0-1 0-2 1 0 2 0 0-1 0-2 2-2 4-4 1-1 2-1 1-1 2-2 1 0 1-1"/>
<path fill="#215387" d="M125 426q1 0 1 0 0 13-9 22 1-2 1-4-1 0-2 0 1-3 3-4 4-3 4-8 1-6 2-6"/>
<path fill="#2e5a6b" d="M197 188q4 1 8 2 0 0 2 0 6 1 10 6 0 2 0 3-3-1-4-2-5-4-12-5-1 0-3-1 0-1-1-3"/>
<path fill="#508557" d="M227 922q1 1 2 1-4 5-11 7-1 1-3 2t-3 1-2-1q0-1 0-2 2 0 3-1 3-2 4-2 1-1 2-1c4-2 4-2 8-4"/>
<path fill="#4d8353" d="M243 917q-2 1-4 1 0 1 0 2 2 1 4 1-2 2-4 3-1 0-3-1-4 0-7 1 0-1 0-3 3-1 5-3 2-1 3-1 3-2 6 0"/>
<path fill="#356c47" d="M399 911q7 2 11 8a1401 1401 0 0 1 5 5q-1 1-3 1 0-1 0-2-2-1-5-2 0-1 0-2-1 0-2 0 0-1 0-2-2 0-5 0 0-1-1-2 1 0 2 0 0-1 0-2-1 0-2 0 0-1 0-2"/>
<path fill="#2b663e" d="M972 979q1 1 1 2-2 1-2 2-1 0-3 2 0 2 0 4-1 3-3 5-2 0-4-1 3-7 9-13 1 0 2-1"/>
<path fill="#56885e" d="M890 997q3 4 5 8 0 3 1 4 1 3 0 7 0-1 0-3-1 0-3-1-3-7-5-14 1 0 2-1"/>
<path fill="#366d48" d="M1149 957q1 0 2 0 0 1 0 2 1 0 2 0 0 1 0 2 1 0 2 0 0 1 0 2 1 0 2 0 0 1 0 2 1 0 2 0 0 1 0 2 1 0 2 0 0 1 0 2a11811 11811 0 0 1 6 4q0 2-1 3-5-5-8-8-1-1-3-3-1-1-2-2-2-1-2-2-2-2-2-4"/>
<path fill="#295767" d="M136 479q2 5 0 9-1 2-1 3-1 1-1 3a3415 3415 0 0 1-4 10q0 0-1 0 1-9 4-16 0-1 0-3 2-6 3-6"/>
<path fill="#407450" d="M467 975a6963 6963 0 0 1 9 8q1 1 2 1 0 1 2 2 1 1 2 3-1 1-3 1-1-1-3-3 0-1 0-2-1 0-3 0-2-1-3-3-1-1-2-2-1-2-1-5"/>
<path fill="#2f6941" d="M253 833q1 0 2 0-2 7-7 10-1 2-3 3-1 1-2 2-1-1-2-2 1-1 2-2 2-2 2-2 2-1 3-3 2-2 3-4 1 0 2 0 0-1 0-2"/>
<path fill="#2e6a40" d="M289 795q1 0 2 0-1 5-6 9-1 2-3 3-1 1-2 2-1-1-2-2 1-1 2-2t3-3 3-3 3-4"/>
<path fill="#255565" d="M1189 547q1 0 2 0-4 9-12 15-1 0-3-1 2-1 3-3t3-3q1 0 2-2 3-1 5-6"/>
<path fill="#245463" d="M796 304c14-1 14-1 20 3q0 1 0 1c-15-1-15-1-19-2q0-1-1-2"/>
<path fill="#28577b" d="M164 468q-1 1-2 1t-3 1q-1 0-3 1-3 1-5 4-3 1-5 1 0-1-1-2c14-8 14-8 19-6"/>
<path fill="#335e6b" d="M609 179q-1 4-4 7-1 0-2 0 0 1 0 2-3 2-7 4 3-5 7-9 0-1 2-2 2-2 4-2"/>
<path fill="#d5e1e5" d="M227 125q1 0 2 0a263 263 0 0 1 2 6q1 2 0 5 0 0-1-1-2-2-4-3 0 2-1 3 0-5 2-10"/>
<path fill="#2f6941" d="M1004 967q7 5 13 11-1 1-3 1 0-1 0-2-1 0-2 0 0-1 0-2-1 0-3 0 0-1 0-2-1 0-2 0 0-1 0-2-1 0-2 0 0-1 0-2-1 0-2-1 1 0 1-1"/>
<path fill="#305d69" d="M687 508q4 0 7 3 4 3 10 4 0 1 0 2-10 0-17-8 0 0 0-1"/>
<path fill="#345d70" d="M774 437q1 1 1 2 1 1 2 1 3 2 6 5 0 1 0 2 1 0 2 0 0 1 0 2 1 0 2 0 0 2-1 3-3-3-6-6-1-1-2-1-2-2-4-5 0-1 0-3"/>
<path fill="#cad9de" d="M805 293q1 2 2 4-2 1-5 1 0 2 0 4 4 1 7 1 0 1 0 1-1 0-4 0-1 0-2 0-2 1-6-2 4-4 8-9"/>
<path fill="#508557" d="M902 1029a212 212 0 0 1 6 15q-4-1-5-4 0-2-1-2-1-4-2-7 1 0 2 0 0-1 0-2"/>
<path fill="#2d6742" d="M543 929q7 1 12 4 1 1 4 2 0 1 2 1 0 1 0 1-3 0-6 0 0-1 0-2-1 0-2 0-3-1-6-3-2-1-2-1-1-1-2-1 0 0 0-1"/>
<path fill="#2b673f" d="M464 916q1 0 2 0 3 8 2 15-2-3-3-7 0-1-1-2 0-1 0-6"/>
<path fill="#2a653f" d="M1081 883q2 1 3 1 1 2 1 3 1 1 2 1 0 2 0 3-2-1-4-2 0 1-1 1-2-1-4-3 1-1 1-3 1 0 2-1"/>
<path fill="#306944" d="M272 814q1 2 1 3-3 4-7 7-1-2-2-4 2-5 5-5 1 0 2 0t1-1"/>
<path fill="#376070" d="M121 443q2 2 0 5a10637 10637 0 0 1-2 6q0 2-1 3-3 1-6 1 0-1 0-2 1 0 2 0 1-1 2-1 1-2 2-5 1-6 3-7"/>
<path fill="#d3dfe3" d="M731 1002q3 1 6 2-6 5-13 6 2-1 3-3a3720 3720 0 0 1 4-5"/>
<path fill="#335d6f" d="M1023 175q1 0 1 0a691 691 0 0 1-2 18q-1 0-3-1 1 0 2 0 0-1 0-3t0-5q0-1 1-2 0-7 1-7"/>
<path fill="#295767" d="M605 82c11 6 11 6 15 9q0 1 0 2-4-1-9-4 0-1 0-2-3-1-6-2 0-1 0-3"/>
<path fill="#3b704c" d="M1012 818q2 0 5 1 3 3 2 6 1 0 2 0 0 1 0 2 1 0 2 0 0 2-1 3a1045 1045 0 0 1-8-8q-3-2-2-4"/>
<path fill="#326b44" d="M329 753q1 0 2 0 0 2 0 3-1 0-2 0 0 1-1 2-3 4-7 7 0-4 3-7 1 0 1-2 2-1 4-1 0-1 0-2"/>
<path fill="#315f6b" d="M428 346q2 1 3 1 0 1-1 2-1 2-1 3 0 2-1 2-1 4-2 7-1 0-2 0 1-8 4-15"/>
<path fill="#265568" d="M1157 259q8 1 16 4 0 1 0 2-7 0-14-3 0-1 0-2-1 0-2-1"/>
<path fill="#d2dfe3" d="M905 186q0 3-1 5-1 1-2 1 1 1 2 3 1 1 1 2-4 0-8-1 3-6 8-10"/>
<path fill="#37626f" d="M957 164q7 2 12 6 0 1-1 2-1 0-2-1 0 0-2-1 0 0-2-1-3-2-6-2 1-1 1-3"/>
<path fill="#518458" d="M807 973q0 1 0 2-6 5-13 4 2-3 5-4 2 0 3-1 2-1 5-1"/>
<path fill="#36616d" d="M938 326q0 5-5 9-1 0-3 0 3-5 8-9m-13 12q1 0 2 1-1 0-2 1 0-1 0-2"/>
<path fill="#4a7c5b" d="M568 941q2 0 3 1 5 0 6-1 1 3 2 5-5 0-11-3 0-1 0-2"/>
<path fill="#245487" d="M803 535q5 1 9 1 0 2-1 4-3 0-6 0-1-2-2-5"/>
<path fill="#56885c" d="M174 947q1 1 2 1-2 3-5 6-3-1-6-2 5-3 9-5"/>
<path fill="#28653c" d="M507 910q7 2 14 6-1 1-2 2-6-3-12-6 0-1 0-2"/>
<path fill="#ccdadf" d="M1101 526q6 2 10 5 1 1 2 2t2 1q-2 1-4 1 0-1 0-2-2 0-5-1 0-1 0-2-2-1-5-2 0-1 0-2"/>
<path fill="#2d5a68" d="M125 426q1 0 1 0-1 8-3 15-1-1-2-2 0-3 1-6 1-2 1-3 1-4 2-4"/>
<path fill="#2a673d" d="M1145 977q7 1 13 4 0 1-1 2a377 377 0 0 1-8-2q-2-1-3-1 0-1-1-3"/>
<path fill="#558660" d="M354 931q1 2 1 3-2 0-2 1-1 0-3 1-1 3-1 5-1 1-3 1 0-1-1-3 2-2 3-2 3-3 6-6"/>
<path fill="#d1dee2" d="M1195 220q1 1 2 1 1 2 1 5 0 2 1 3 0 1 0 2-1-2-2-4-2 1-4 1 1-4 2-8"/>
<path fill="#265566" d="M424 362q1 5-1 9 0 1-1 3t-1 3-1 0q0-8 4-15"/>
<path fill="#387047" d="M483 840q2 1 4 1 0 1 0 2 1 0 2 0 0 1 0 2 1 0 2 0 0 1 0 2 1 0 2 0 0 2-1 3a1711 1711 0 0 1-7-7q-3-2-2-3"/>
<path fill="#35616d" d="M1001 345q1 0 2 0 0 1 0 2 2 1 2 1 3 1 6 3 0 1 0 2-4-1-9-4-1 0-2-1 1-1 1-3"/>
<path fill="#37636e" d="M1173 264q2 0 4 0 1 0 2 1 2 0 5 2-5 2-11-1 0-1 0-2"/>
<path fill="#c5d5da" d="M759 258q0 5-5 9-1 0-2 0 0 1 0 2-1 0-2-1 2-2 3-4 2-1 2-2 2-2 4-4"/>
<path fill="#346c47" d="M1069 1029q7 2 10 8-1 0-3 0 0-1 0-2-1 0-3 0-2-3-4-6"/>
<path fill="#417550" d="M1063 967q1 0 2 1 0 2 0 3 1 0 2 0 0 3-1 5 1 0 2 0 0 3-1 5-2-4-3-9 0-1-1-3 0-1 0-2"/>
<path fill="#c8d8dd" d="M883 375q3 1 7 3-2 3-5 5-1-4-2-8"/>
<path fill="#466e76" d="M210 192q2 0 5 1 3 3 2 6-5-1-7-6 0 0 0-1"/>
<path fill="#26643b" d="M1136 973q3 0 5 0 0 1 0 2 1 1 2 2-2 1-5 1-1-1-2-2 0-1 0-3"/>
<path fill="#5e8d69" d="M159 954q1 1 2 1-4 5-6 5t-4-1q4-3 8-5"/>
<path fill="#d1dee2" d="M418 299q1 1 2 1 1 4 1 7-1 0-2 1 0-1-1-3 0 1 0 2-1 0-2 0c1-6 1-6 2-8"/>
<path fill="#265664" d="M828 211q1 1 1 2-4 6-9 7 2-2 3-4 1-1 1-2 2-2 4-3"/>
<path fill="#c7d7dc" d="M135 962q2 2 4 3-4 2-9 4 2-4 5-7"/>
<path fill="#366d48" d="M1029 835q2 1 4 2 0 1 0 2 1 0 2 0 0 1 0 2 1 0 2 0 0 2-1 3-1-1-3-3-1-1-2-2-2-2-2-4"/>
<path fill="#d2e0e3" d="M1196 289q1 0 2 0 0 4-1 7-1 0-2 1-1-3-1-6 1-1 2-2"/>
<path fill="#386371" d="M900 214q3 1 5 2 0 1 0 2-6-1-11-2 3-2 6-2"/>
<path fill="#225361" d="M943 162q-5 3-11 2 1-1 1-2 5-1 10 0"/>
<path fill="#598965" d="M770 991q-3 4-7 4-1-1-2-2c6-3 6-3 9-2"/>
<path fill="#4e8255" d="M290 955q1 5 1 9-1 0-3-1 0-3-1-7 2-1 3-1"/>
<path fill="#63906e" d="M815 969q-1 4-6 5-1 0-3-1c5-4 5-4 9-4"/>
<path fill="#356e46" d="M1060 953q1 0 2 0 2 6 0 7 1 0 2 0 0 2-1 3-4-4-3-10"/>
<path fill="#295867" d="M990 271q1 2 1 3-2 2-5 4-1 0-2-1 5-6 6-6"/>
<path fill="#295867" d="M1231 260q2 0 3 0-4 4-10 4 2-4 7-4"/>
<path fill="#275665" d="M232 227q2 5-1 10-1 0-2-1 2-4 3-9"/>
<path fill="#4d8454" d="M772 988q2 1 4 4-2 1-4 1-1-1-3-2 0-1 0-2 2 0 3-1"/>
<path fill="#578860" d="M217 929q-3 4-7 4 0-1 0-3 4-3 7-1"/>
<path fill="#39646e" d="M722 499q2 1 5 2 0 1 0 2-1 0-2 0-3 1-5 2 1-3 2-6"/>
<path fill="#c7d7dc" d="M1110 494q1 1 2 1-3 4-6 7-1-1-2-2 1 0 2 0 0-1 0-2 1 0 2 0 1-2 2-4"/>
<path fill="#3a646d" d="M743 389q5 2 9 6-5 0-9-4 0-1 0-2"/>
<path fill="#d0dee2" d="M843 320q5 2 10 3-1 2-3 3a644 644 0 0 1-5-4q-1-1-2-1 0 0 0-1"/>
<path fill="#39646e" d="M1201 277q3 5 1 9-1 1-3 1 1-5 2-10"/>
<path fill="#c7d7dc" d="M807 230q1 1 2 1-3 4-6 7-1-1-2-2 1 0 2 0 1-2 2-4 1 0 2 0 0-1 0-2"/>
<path fill="#cad9de" d="M534 122q2 1 4 1-1 0-2 0 0 1-1 2-1 2-3 3-1-1-2-2 1 0 2 0 0-1 0-2 1 0 2 0 0-1 0-2"/>
<path fill="#2c693e" d="M1161 969q3 1 6 4 0 2-1 3-2-2-5-5 0-1 0-2"/>
<path fill="#306b41" d="M1055 934q2 0 5 1-1 3-3 6-2-3-2-7"/>
<path fill="#3e764a" d="M456 884q3 1 6 2-2 2-4 4-2-3-2-6"/>
<path fill="#3d6772" d="M137 474q2 1 4 1-2 3-5 5 0-1-1-2 1-2 2-4"/>
<path fill="#c9d8dd" d="M1168 452q2 0 5 1 0 1 0 2 2 1 4 1 0 1-1 2a775 775 0 0 1-6-4q-1-1-2-1 0 0 0-1"/>
<path fill="#225361" d="M740 276q0 3-1 5-1 1-2 1t-3-1q2-4 6-5"/>
<path fill="#c0d2d5" d="M1160 257q1 0 2 0 0 1 0 2a2427 2427 0 0 0 5 1q1 1 1 2-5-1-10-3 1-1 2-2"/>
<path fill="#ccdbdf" d="M736 174q1 1 2 1 0 1-1 2-1 0-2 0 0 1 0 2-1 0-2 0 0 2-1 3-1-1-2-2 2-2 4-4 1 0 2 0 0-1 0-2"/>
<path fill="#dae5e8" d="M1000 170q6 2 8 6 0 1-1 2-1-1-3-3t-2-2q-2-2-2-3"/>
</g>
</svg>